ISO-10303-21;
HEADER;
/* Generated by software containing ST-Developer
 * from STEP Tools, Inc. (www.steptools.com) 
 */

FILE_DESCRIPTION(
/* description */ (''),
/* implementation_level */ '2;1');

FILE_NAME(
/* name */ 'Panel.step',
/* time_stamp */ '2026-09-09T19:17:09+07:00',
/* author */ (''),
/* organization */ (''),
/* preprocessor_version */ 'ST-DEVELOPER v20.2',
/* originating_system */ 'Autodesk Translation Framework v15.15.0.0',
/* authorisation */ '');

FILE_SCHEMA (('AUTOMOTIVE_DESIGN { 1 0 10303 214 3 1 1 }'));
ENDSEC;

DATA;
#10=MECHANICAL_DESIGN_GEOMETRIC_PRESENTATION_REPRESENTATION('',(#13),#1978);
#11=SHAPE_REPRESENTATION_RELATIONSHIP('SRR','None',#1985,#12);
#12=ADVANCED_BREP_SHAPE_REPRESENTATION('',(#14),#1977);
#13=STYLED_ITEM('',(#1995),#14);
#14=MANIFOLD_SOLID_BREP('front panel',#1146);
#15=TOROIDAL_SURFACE('',#1183,3.99999850585027,2.);
#16=TOROIDAL_SURFACE('',#1211,3.99999952142592,2.);
#17=TOROIDAL_SURFACE('',#1220,4.00010509091136,2.);
#18=TOROIDAL_SURFACE('',#1226,3.99987538803873,2.);
#19=TOROIDAL_SURFACE('',#1246,4.00010509091136,2.);
#20=TOROIDAL_SURFACE('',#1251,3.99987538803873,2.);
#21=TOROIDAL_SURFACE('',#1254,3.99999952142592,2.);
#22=TOROIDAL_SURFACE('',#1258,3.99999850585027,2.);
#23=FACE_BOUND('',#173,.T.);
#24=FACE_BOUND('',#231,.T.);
#25=CIRCLE('',#1171,4.00010509091136);
#26=CIRCLE('',#1172,3.99987538803873);
#27=CIRCLE('',#1173,3.99999952142592);
#28=CIRCLE('',#1174,3.99999850585027);
#29=CIRCLE('',#1179,2.);
#30=CIRCLE('',#1182,2.);
#31=CIRCLE('',#1184,2.);
#32=CIRCLE('',#1185,5.99999850585027);
#33=CIRCLE('',#1186,3.99999850585027);
#34=CIRCLE('',#1188,2.);
#35=CIRCLE('',#1189,2.);
#36=CIRCLE('',#1191,4.19999850585091);
#37=CIRCLE('',#1192,4.20010509092856);
#38=CIRCLE('',#1193,4.19987538803873);
#39=CIRCLE('',#1194,4.19999952142593);
#40=CIRCLE('',#1196,2.);
#41=CIRCLE('',#1197,2.);
#42=CIRCLE('',#1198,2.);
#43=CIRCLE('',#1201,2.);
#44=CIRCLE('',#1202,2.);
#45=CIRCLE('',#1204,5.99999850585027);
#46=CIRCLE('',#1207,2.);
#47=CIRCLE('',#1209,2.);
#48=CIRCLE('',#1212,2.);
#49=CIRCLE('',#1213,5.99999952142592);
#50=CIRCLE('',#1214,3.99999952142592);
#51=CIRCLE('',#1218,2.);
#52=CIRCLE('',#1219,2.);
#53=CIRCLE('',#1221,2.);
#54=CIRCLE('',#1222,6.00010509091136);
#55=CIRCLE('',#1223,4.00010509091136);
#56=CIRCLE('',#1225,2.);
#57=CIRCLE('',#1227,2.);
#58=CIRCLE('',#1228,5.99987538803873);
#59=CIRCLE('',#1229,3.99987538803873);
#60=CIRCLE('',#1234,5.99987538803873);
#61=CIRCLE('',#1238,5.99999952142592);
#62=CIRCLE('',#1241,2.);
#63=CIRCLE('',#1244,2.);
#64=CIRCLE('',#1245,2.);
#65=CIRCLE('',#1247,2.);
#66=CIRCLE('',#1248,6.00010509091136);
#67=CIRCLE('',#1250,2.);
#68=CIRCLE('',#1252,2.);
#69=CIRCLE('',#1255,2.);
#70=CIRCLE('',#1257,2.);
#71=CIRCLE('',#1259,2.);
#72=CIRCLE('',#1268,4.20010509092856);
#73=CIRCLE('',#1273,4.19999850585091);
#74=CIRCLE('',#1278,4.19999952142593);
#75=CIRCLE('',#1282,4.19987538803873);
#76=PLANE('',#1168);
#77=PLANE('',#1169);
#78=PLANE('',#1170);
#79=PLANE('',#1190);
#80=PLANE('',#1195);
#81=PLANE('',#1199);
#82=PLANE('',#1200);
#83=PLANE('',#1205);
#84=PLANE('',#1206);
#85=PLANE('',#1232);
#86=PLANE('',#1235);
#87=PLANE('',#1236);
#88=PLANE('',#1239);
#89=PLANE('',#1262);
#90=PLANE('',#1263);
#91=PLANE('',#1264);
#92=PLANE('',#1265);
#93=PLANE('',#1266);
#94=PLANE('',#1269);
#95=PLANE('',#1270);
#96=PLANE('',#1271);
#97=PLANE('',#1276);
#98=PLANE('',#1279);
#99=PLANE('',#1280);
#100=PLANE('',#1283);
#101=PLANE('',#1284);
#102=FACE_OUTER_BOUND('',#166,.T.);
#103=FACE_OUTER_BOUND('',#167,.T.);
#104=FACE_OUTER_BOUND('',#168,.T.);
#105=FACE_OUTER_BOUND('',#169,.T.);
#106=FACE_OUTER_BOUND('',#170,.T.);
#107=FACE_OUTER_BOUND('',#171,.T.);
#108=FACE_OUTER_BOUND('',#172,.T.);
#109=FACE_OUTER_BOUND('',#174,.T.);
#110=FACE_OUTER_BOUND('',#175,.T.);
#111=FACE_OUTER_BOUND('',#176,.T.);
#112=FACE_OUTER_BOUND('',#177,.T.);
#113=FACE_OUTER_BOUND('',#178,.T.);
#114=FACE_OUTER_BOUND('',#179,.T.);
#115=FACE_OUTER_BOUND('',#180,.T.);
#116=FACE_OUTER_BOUND('',#181,.T.);
#117=FACE_OUTER_BOUND('',#182,.T.);
#118=FACE_OUTER_BOUND('',#183,.T.);
#119=FACE_OUTER_BOUND('',#184,.T.);
#120=FACE_OUTER_BOUND('',#185,.T.);
#121=FACE_OUTER_BOUND('',#186,.T.);
#122=FACE_OUTER_BOUND('',#187,.T.);
#123=FACE_OUTER_BOUND('',#188,.T.);
#124=FACE_OUTER_BOUND('',#189,.T.);
#125=FACE_OUTER_BOUND('',#190,.T.);
#126=FACE_OUTER_BOUND('',#191,.T.);
#127=FACE_OUTER_BOUND('',#192,.T.);
#128=FACE_OUTER_BOUND('',#193,.T.);
#129=FACE_OUTER_BOUND('',#194,.T.);
#130=FACE_OUTER_BOUND('',#195,.T.);
#131=FACE_OUTER_BOUND('',#196,.T.);
#132=FACE_OUTER_BOUND('',#197,.T.);
#133=FACE_OUTER_BOUND('',#198,.T.);
#134=FACE_OUTER_BOUND('',#199,.T.);
#135=FACE_OUTER_BOUND('',#200,.T.);
#136=FACE_OUTER_BOUND('',#201,.T.);
#137=FACE_OUTER_BOUND('',#202,.T.);
#138=FACE_OUTER_BOUND('',#203,.T.);
#139=FACE_OUTER_BOUND('',#204,.T.);
#140=FACE_OUTER_BOUND('',#205,.T.);
#141=FACE_OUTER_BOUND('',#206,.T.);
#142=FACE_OUTER_BOUND('',#207,.T.);
#143=FACE_OUTER_BOUND('',#208,.T.);
#144=FACE_OUTER_BOUND('',#209,.T.);
#145=FACE_OUTER_BOUND('',#210,.T.);
#146=FACE_OUTER_BOUND('',#211,.T.);
#147=FACE_OUTER_BOUND('',#212,.T.);
#148=FACE_OUTER_BOUND('',#213,.T.);
#149=FACE_OUTER_BOUND('',#214,.T.);
#150=FACE_OUTER_BOUND('',#215,.T.);
#151=FACE_OUTER_BOUND('',#216,.T.);
#152=FACE_OUTER_BOUND('',#217,.T.);
#153=FACE_OUTER_BOUND('',#218,.T.);
#154=FACE_OUTER_BOUND('',#219,.T.);
#155=FACE_OUTER_BOUND('',#220,.T.);
#156=FACE_OUTER_BOUND('',#221,.T.);
#157=FACE_OUTER_BOUND('',#222,.T.);
#158=FACE_OUTER_BOUND('',#223,.T.);
#159=FACE_OUTER_BOUND('',#224,.T.);
#160=FACE_OUTER_BOUND('',#225,.T.);
#161=FACE_OUTER_BOUND('',#226,.T.);
#162=FACE_OUTER_BOUND('',#227,.T.);
#163=FACE_OUTER_BOUND('',#228,.T.);
#164=FACE_OUTER_BOUND('',#229,.T.);
#165=FACE_OUTER_BOUND('',#230,.T.);
#166=EDGE_LOOP('',(#720,#721,#722,#723));
#167=EDGE_LOOP('',(#724,#725,#726,#727));
#168=EDGE_LOOP('',(#728,#729,#730,#731));
#169=EDGE_LOOP('',(#732,#733,#734,#735));
#170=EDGE_LOOP('',(#736,#737,#738,#739));
#171=EDGE_LOOP('',(#740,#741,#742,#743));
#172=EDGE_LOOP('',(#744,#745,#746,#747,#748,#749,#750,#751,#752,#753,#754));
#173=EDGE_LOOP('',(#755,#756,#757,#758));
#174=EDGE_LOOP('',(#759,#760,#761,#762));
#175=EDGE_LOOP('',(#763,#764,#765,#766,#767,#768));
#176=EDGE_LOOP('',(#769,#770,#771,#772));
#177=EDGE_LOOP('',(#773,#774,#775,#776));
#178=EDGE_LOOP('',(#777,#778,#779,#780,#781));
#179=EDGE_LOOP('',(#782,#783,#784,#785,#786,#787,#788,#789,#790,#791,#792,
#793,#794,#795,#796,#797));
#180=EDGE_LOOP('',(#798,#799,#800,#801,#802,#803,#804,#805,#806,#807,#808,
#809));
#181=EDGE_LOOP('',(#810,#811,#812,#813));
#182=EDGE_LOOP('',(#814,#815,#816,#817,#818,#819,#820,#821,#822,#823));
#183=EDGE_LOOP('',(#824,#825,#826,#827));
#184=EDGE_LOOP('',(#828,#829,#830,#831));
#185=EDGE_LOOP('',(#832,#833,#834,#835,#836,#837,#838));
#186=EDGE_LOOP('',(#839,#840,#841,#842));
#187=EDGE_LOOP('',(#843,#844,#845,#846));
#188=EDGE_LOOP('',(#847,#848,#849,#850));
#189=EDGE_LOOP('',(#851,#852,#853,#854));
#190=EDGE_LOOP('',(#855,#856,#857,#858));
#191=EDGE_LOOP('',(#859,#860,#861,#862));
#192=EDGE_LOOP('',(#863,#864,#865,#866));
#193=EDGE_LOOP('',(#867,#868,#869,#870));
#194=EDGE_LOOP('',(#871,#872,#873,#874,#875,#876));
#195=EDGE_LOOP('',(#877,#878,#879,#880));
#196=EDGE_LOOP('',(#881,#882,#883,#884));
#197=EDGE_LOOP('',(#885,#886,#887,#888));
#198=EDGE_LOOP('',(#889,#890,#891,#892));
#199=EDGE_LOOP('',(#893,#894,#895,#896));
#200=EDGE_LOOP('',(#897,#898,#899,#900));
#201=EDGE_LOOP('',(#901,#902,#903,#904));
#202=EDGE_LOOP('',(#905,#906,#907,#908));
#203=EDGE_LOOP('',(#909,#910,#911,#912));
#204=EDGE_LOOP('',(#913,#914,#915,#916));
#205=EDGE_LOOP('',(#917,#918,#919,#920));
#206=EDGE_LOOP('',(#921,#922,#923,#924));
#207=EDGE_LOOP('',(#925,#926,#927,#928));
#208=EDGE_LOOP('',(#929,#930,#931,#932));
#209=EDGE_LOOP('',(#933,#934,#935,#936));
#210=EDGE_LOOP('',(#937,#938,#939,#940));
#211=EDGE_LOOP('',(#941,#942,#943,#944));
#212=EDGE_LOOP('',(#945,#946,#947,#948));
#213=EDGE_LOOP('',(#949,#950,#951,#952));
#214=EDGE_LOOP('',(#953,#954,#955,#956));
#215=EDGE_LOOP('',(#957,#958,#959,#960,#961,#962,#963,#964,#965,#966,#967,
#968,#969,#970,#971));
#216=EDGE_LOOP('',(#972,#973,#974,#975));
#217=EDGE_LOOP('',(#976,#977,#978,#979));
#218=EDGE_LOOP('',(#980,#981,#982,#983));
#219=EDGE_LOOP('',(#984,#985,#986,#987));
#220=EDGE_LOOP('',(#988,#989,#990,#991));
#221=EDGE_LOOP('',(#992,#993,#994,#995));
#222=EDGE_LOOP('',(#996,#997,#998,#999));
#223=EDGE_LOOP('',(#1000,#1001,#1002,#1003));
#224=EDGE_LOOP('',(#1004,#1005,#1006,#1007));
#225=EDGE_LOOP('',(#1008,#1009,#1010,#1011));
#226=EDGE_LOOP('',(#1012,#1013,#1014,#1015));
#227=EDGE_LOOP('',(#1016,#1017,#1018,#1019));
#228=EDGE_LOOP('',(#1020,#1021,#1022,#1023));
#229=EDGE_LOOP('',(#1024,#1025,#1026,#1027,#1028,#1029,#1030,#1031,#1032,
#1033,#1034));
#230=EDGE_LOOP('',(#1035,#1036,#1037,#1038,#1039,#1040,#1041,#1042,#1043,
#1044,#1045,#1046,#1047));
#231=EDGE_LOOP('',(#1048,#1049,#1050,#1051));
#232=ELLIPSE('',#1161,2.82842712474619,2.);
#233=ELLIPSE('',#1162,2.82842712474619,2.);
#234=ELLIPSE('',#1164,2.82842712474619,2.);
#235=ELLIPSE('',#1166,2.82842712474619,2.);
#236=ELLIPSE('',#1176,2.82842712474619,2.);
#237=ELLIPSE('',#1177,2.82842712474619,2.);
#238=ELLIPSE('',#1180,2.82842712474618,2.);
#239=ELLIPSE('',#1210,2.16478440059048,2.);
#240=ELLIPSE('',#1216,2.82842712474619,2.);
#241=ELLIPSE('',#1242,2.16478440059048,2.);
#242=LINE('',#1646,#347);
#243=LINE('',#1650,#348);
#244=LINE('',#1654,#349);
#245=LINE('',#1657,#350);
#246=LINE('',#1660,#351);
#247=LINE('',#1663,#352);
#248=LINE('',#1665,#353);
#249=LINE('',#1666,#354);
#250=LINE('',#1669,#355);
#251=LINE('',#1671,#356);
#252=LINE('',#1672,#357);
#253=LINE('',#1675,#358);
#254=LINE('',#1676,#359);
#255=LINE('',#1680,#360);
#256=LINE('',#1682,#361);
#257=LINE('',#1684,#362);
#258=LINE('',#1688,#363);
#259=LINE('',#1692,#364);
#260=LINE('',#1694,#365);
#261=LINE('',#1698,#366);
#262=LINE('',#1705,#367);
#263=LINE('',#1708,#368);
#264=LINE('',#1712,#369);
#265=LINE('',#1715,#370);
#266=LINE('',#1717,#371);
#267=LINE('',#1721,#372);
#268=LINE('',#1724,#373);
#269=LINE('',#1735,#374);
#270=LINE('',#1737,#375);
#271=LINE('',#1741,#376);
#272=LINE('',#1745,#377);
#273=LINE('',#1747,#378);
#274=LINE('',#1749,#379);
#275=LINE('',#1751,#380);
#276=LINE('',#1755,#381);
#277=LINE('',#1759,#382);
#278=LINE('',#1761,#383);
#279=LINE('',#1765,#384);
#280=LINE('',#1766,#385);
#281=LINE('',#1769,#386);
#282=LINE('',#1773,#387);
#283=LINE('',#1777,#388);
#284=LINE('',#1780,#389);
#285=LINE('',#1782,#390);
#286=LINE('',#1783,#391);
#287=LINE('',#1786,#392);
#288=LINE('',#1787,#393);
#289=LINE('',#1790,#394);
#290=LINE('',#1792,#395);
#291=LINE('',#1794,#396);
#292=LINE('',#1796,#397);
#293=LINE('',#1798,#398);
#294=LINE('',#1802,#399);
#295=LINE('',#1806,#400);
#296=LINE('',#1810,#401);
#297=LINE('',#1811,#402);
#298=LINE('',#1813,#403);
#299=LINE('',#1815,#404);
#300=LINE('',#1817,#405);
#301=LINE('',#1818,#406);
#302=LINE('',#1823,#407);
#303=LINE('',#1827,#408);
#304=LINE('',#1836,#409);
#305=LINE('',#1843,#410);
#306=LINE('',#1846,#411);
#307=LINE('',#1857,#412);
#308=LINE('',#1858,#413);
#309=LINE('',#1866,#414);
#310=LINE('',#1867,#415);
#311=LINE('',#1869,#416);
#312=LINE('',#1870,#417);
#313=LINE('',#1873,#418);
#314=LINE('',#1875,#419);
#315=LINE('',#1876,#420);
#316=LINE('',#1879,#421);
#317=LINE('',#1883,#422);
#318=LINE('',#1884,#423);
#319=LINE('',#1887,#424);
#320=LINE('',#1888,#425);
#321=LINE('',#1892,#426);
#322=LINE('',#1900,#427);
#323=LINE('',#1918,#428);
#324=LINE('',#1920,#429);
#325=LINE('',#1923,#430);
#326=LINE('',#1924,#431);
#327=LINE('',#1926,#432);
#328=LINE('',#1928,#433);
#329=LINE('',#1931,#434);
#330=LINE('',#1933,#435);
#331=LINE('',#1934,#436);
#332=LINE('',#1937,#437);
#333=LINE('',#1941,#438);
#334=LINE('',#1942,#439);
#335=LINE('',#1945,#440);
#336=LINE('',#1946,#441);
#337=LINE('',#1949,#442);
#338=LINE('',#1950,#443);
#339=LINE('',#1954,#444);
#340=LINE('',#1956,#445);
#341=LINE('',#1960,#446);
#342=LINE('',#1964,#447);
#343=LINE('',#1965,#448);
#344=LINE('',#1968,#449);
#345=LINE('',#1969,#450);
#346=LINE('',#1973,#451);
#347=VECTOR('',#1289,10.);
#348=VECTOR('',#1292,10.);
#349=VECTOR('',#1297,10.);
#350=VECTOR('',#1300,10.);
#351=VECTOR('',#1303,10.);
#352=VECTOR('',#1306,10.);
#353=VECTOR('',#1309,10.);
#354=VECTOR('',#1310,10.);
#355=VECTOR('',#1313,10.);
#356=VECTOR('',#1314,10.);
#357=VECTOR('',#1315,10.);
#358=VECTOR('',#1318,10.);
#359=VECTOR('',#1319,10.);
#360=VECTOR('',#1322,10.);
#361=VECTOR('',#1323,10.);
#362=VECTOR('',#1324,10.);
#363=VECTOR('',#1327,10.);
#364=VECTOR('',#1330,10.);
#365=VECTOR('',#1331,10.);
#366=VECTOR('',#1334,10.);
#367=VECTOR('',#1341,2.);
#368=VECTOR('',#1344,10.);
#369=VECTOR('',#1347,10.);
#370=VECTOR('',#1350,10.);
#371=VECTOR('',#1351,10.);
#372=VECTOR('',#1356,10.);
#373=VECTOR('',#1359,10.);
#374=VECTOR('',#1372,10.);
#375=VECTOR('',#1373,10.);
#376=VECTOR('',#1378,10.);
#377=VECTOR('',#1381,10.);
#378=VECTOR('',#1382,10.);
#379=VECTOR('',#1383,10.);
#380=VECTOR('',#1384,10.);
#381=VECTOR('',#1387,10.);
#382=VECTOR('',#1390,10.);
#383=VECTOR('',#1391,10.);
#384=VECTOR('',#1394,10.);
#385=VECTOR('',#1395,10.);
#386=VECTOR('',#1398,10.);
#387=VECTOR('',#1401,10.);
#388=VECTOR('',#1404,10.);
#389=VECTOR('',#1407,10.);
#390=VECTOR('',#1408,10.);
#391=VECTOR('',#1409,10.);
#392=VECTOR('',#1412,10.);
#393=VECTOR('',#1413,10.);
#394=VECTOR('',#1416,10.);
#395=VECTOR('',#1417,10.);
#396=VECTOR('',#1418,10.);
#397=VECTOR('',#1419,10.);
#398=VECTOR('',#1420,10.);
#399=VECTOR('',#1423,10.);
#400=VECTOR('',#1428,10.);
#401=VECTOR('',#1433,10.);
#402=VECTOR('',#1434,10.);
#403=VECTOR('',#1437,10.);
#404=VECTOR('',#1438,10.);
#405=VECTOR('',#1439,10.);
#406=VECTOR('',#1440,10.);
#407=VECTOR('',#1445,10.);
#408=VECTOR('',#1448,10.);
#409=VECTOR('',#1461,10.);
#410=VECTOR('',#1468,10.);
#411=VECTOR('',#1471,10.);
#412=VECTOR('',#1484,10.);
#413=VECTOR('',#1485,10.);
#414=VECTOR('',#1496,10.);
#415=VECTOR('',#1497,10.);
#416=VECTOR('',#1500,10.);
#417=VECTOR('',#1501,10.);
#418=VECTOR('',#1504,10.);
#419=VECTOR('',#1505,10.);
#420=VECTOR('',#1506,10.);
#421=VECTOR('',#1509,10.);
#422=VECTOR('',#1514,10.);
#423=VECTOR('',#1515,10.);
#424=VECTOR('',#1518,10.);
#425=VECTOR('',#1519,10.);
#426=VECTOR('',#1526,10.);
#427=VECTOR('',#1537,10.);
#428=VECTOR('',#1572,10.);
#429=VECTOR('',#1575,10.);
#430=VECTOR('',#1578,10.);
#431=VECTOR('',#1579,10.);
#432=VECTOR('',#1582,10.);
#433=VECTOR('',#1585,10.);
#434=VECTOR('',#1588,10.);
#435=VECTOR('',#1589,10.);
#436=VECTOR('',#1590,10.);
#437=VECTOR('',#1593,10.);
#438=VECTOR('',#1598,10.);
#439=VECTOR('',#1599,10.);
#440=VECTOR('',#1602,10.);
#441=VECTOR('',#1603,10.);
#442=VECTOR('',#1606,10.);
#443=VECTOR('',#1607,10.);
#444=VECTOR('',#1614,10.);
#445=VECTOR('',#1617,10.);
#446=VECTOR('',#1622,10.);
#447=VECTOR('',#1627,10.);
#448=VECTOR('',#1628,10.);
#449=VECTOR('',#1631,10.);
#450=VECTOR('',#1632,10.);
#451=VECTOR('',#1639,10.);
#452=VERTEX_POINT('',#1644);
#453=VERTEX_POINT('',#1645);
#454=VERTEX_POINT('',#1647);
#455=VERTEX_POINT('',#1649);
#456=VERTEX_POINT('',#1653);
#457=VERTEX_POINT('',#1655);
#458=VERTEX_POINT('',#1659);
#459=VERTEX_POINT('',#1661);
#460=VERTEX_POINT('',#1668);
#461=VERTEX_POINT('',#1670);
#462=VERTEX_POINT('',#1674);
#463=VERTEX_POINT('',#1678);
#464=VERTEX_POINT('',#1679);
#465=VERTEX_POINT('',#1681);
#466=VERTEX_POINT('',#1683);
#467=VERTEX_POINT('',#1685);
#468=VERTEX_POINT('',#1687);
#469=VERTEX_POINT('',#1689);
#470=VERTEX_POINT('',#1691);
#471=VERTEX_POINT('',#1693);
#472=VERTEX_POINT('',#1695);
#473=VERTEX_POINT('',#1697);
#474=VERTEX_POINT('',#1701);
#475=VERTEX_POINT('',#1702);
#476=VERTEX_POINT('',#1704);
#477=VERTEX_POINT('',#1706);
#478=VERTEX_POINT('',#1710);
#479=VERTEX_POINT('',#1711);
#480=VERTEX_POINT('',#1713);
#481=VERTEX_POINT('',#1716);
#482=VERTEX_POINT('',#1720);
#483=VERTEX_POINT('',#1722);
#484=VERTEX_POINT('',#1726);
#485=VERTEX_POINT('',#1727);
#486=VERTEX_POINT('',#1732);
#487=VERTEX_POINT('',#1733);
#488=VERTEX_POINT('',#1736);
#489=VERTEX_POINT('',#1740);
#490=VERTEX_POINT('',#1742);
#491=VERTEX_POINT('',#1744);
#492=VERTEX_POINT('',#1746);
#493=VERTEX_POINT('',#1748);
#494=VERTEX_POINT('',#1750);
#495=VERTEX_POINT('',#1752);
#496=VERTEX_POINT('',#1754);
#497=VERTEX_POINT('',#1756);
#498=VERTEX_POINT('',#1758);
#499=VERTEX_POINT('',#1760);
#500=VERTEX_POINT('',#1762);
#501=VERTEX_POINT('',#1764);
#502=VERTEX_POINT('',#1768);
#503=VERTEX_POINT('',#1770);
#504=VERTEX_POINT('',#1772);
#505=VERTEX_POINT('',#1774);
#506=VERTEX_POINT('',#1776);
#507=VERTEX_POINT('',#1779);
#508=VERTEX_POINT('',#1781);
#509=VERTEX_POINT('',#1785);
#510=VERTEX_POINT('',#1789);
#511=VERTEX_POINT('',#1791);
#512=VERTEX_POINT('',#1793);
#513=VERTEX_POINT('',#1795);
#514=VERTEX_POINT('',#1797);
#515=VERTEX_POINT('',#1799);
#516=VERTEX_POINT('',#1801);
#517=VERTEX_POINT('',#1805);
#518=VERTEX_POINT('',#1809);
#519=VERTEX_POINT('',#1814);
#520=VERTEX_POINT('',#1816);
#521=VERTEX_POINT('',#1821);
#522=VERTEX_POINT('',#1822);
#523=VERTEX_POINT('',#1824);
#524=VERTEX_POINT('',#1826);
#525=VERTEX_POINT('',#1830);
#526=VERTEX_POINT('',#1835);
#527=VERTEX_POINT('',#1839);
#528=VERTEX_POINT('',#1840);
#529=VERTEX_POINT('',#1842);
#530=VERTEX_POINT('',#1844);
#531=VERTEX_POINT('',#1848);
#532=VERTEX_POINT('',#1849);
#533=VERTEX_POINT('',#1854);
#534=VERTEX_POINT('',#1855);
#535=VERTEX_POINT('',#1860);
#536=VERTEX_POINT('',#1861);
#537=VERTEX_POINT('',#1872);
#538=VERTEX_POINT('',#1874);
#539=VERTEX_POINT('',#1878);
#540=VERTEX_POINT('',#1882);
#541=VERTEX_POINT('',#1886);
#542=VERTEX_POINT('',#1897);
#543=VERTEX_POINT('',#1899);
#544=VERTEX_POINT('',#1922);
#545=VERTEX_POINT('',#1930);
#546=VERTEX_POINT('',#1932);
#547=VERTEX_POINT('',#1936);
#548=VERTEX_POINT('',#1940);
#549=VERTEX_POINT('',#1944);
#550=VERTEX_POINT('',#1948);
#551=VERTEX_POINT('',#1959);
#552=VERTEX_POINT('',#1963);
#553=VERTEX_POINT('',#1967);
#554=EDGE_CURVE('',#452,#453,#242,.T.);
#555=EDGE_CURVE('',#453,#454,#232,.T.);
#556=EDGE_CURVE('',#454,#455,#243,.T.);
#557=EDGE_CURVE('',#452,#455,#233,.T.);
#558=EDGE_CURVE('',#453,#456,#244,.T.);
#559=EDGE_CURVE('',#456,#457,#234,.T.);
#560=EDGE_CURVE('',#457,#454,#245,.T.);
#561=EDGE_CURVE('',#456,#458,#246,.T.);
#562=EDGE_CURVE('',#458,#459,#235,.T.);
#563=EDGE_CURVE('',#459,#457,#247,.T.);
#564=EDGE_CURVE('',#455,#459,#248,.T.);
#565=EDGE_CURVE('',#458,#452,#249,.T.);
#566=EDGE_CURVE('',#460,#455,#250,.T.);
#567=EDGE_CURVE('',#461,#460,#251,.T.);
#568=EDGE_CURVE('',#461,#459,#252,.T.);
#569=EDGE_CURVE('',#462,#454,#253,.T.);
#570=EDGE_CURVE('',#460,#462,#254,.T.);
#571=EDGE_CURVE('',#463,#464,#255,.T.);
#572=EDGE_CURVE('',#463,#465,#256,.T.);
#573=EDGE_CURVE('',#466,#465,#257,.T.);
#574=EDGE_CURVE('',#467,#466,#25,.T.);
#575=EDGE_CURVE('',#468,#467,#258,.T.);
#576=EDGE_CURVE('',#469,#468,#26,.T.);
#577=EDGE_CURVE('',#470,#469,#259,.T.);
#578=EDGE_CURVE('',#471,#470,#260,.T.);
#579=EDGE_CURVE('',#472,#471,#27,.T.);
#580=EDGE_CURVE('',#473,#472,#261,.T.);
#581=EDGE_CURVE('',#464,#473,#28,.T.);
#582=EDGE_CURVE('',#474,#475,#236,.T.);
#583=EDGE_CURVE('',#474,#476,#262,.T.);
#584=EDGE_CURVE('',#476,#477,#237,.F.);
#585=EDGE_CURVE('',#477,#475,#263,.T.);
#586=EDGE_CURVE('',#478,#479,#264,.T.);
#587=EDGE_CURVE('',#479,#480,#29,.T.);
#588=EDGE_CURVE('',#480,#477,#265,.T.);
#589=EDGE_CURVE('',#476,#481,#266,.T.);
#590=EDGE_CURVE('',#481,#478,#238,.T.);
#591=EDGE_CURVE('',#481,#482,#267,.T.);
#592=EDGE_CURVE('',#482,#483,#30,.T.);
#593=EDGE_CURVE('',#483,#478,#268,.T.);
#594=EDGE_CURVE('',#484,#485,#31,.T.);
#595=EDGE_CURVE('',#485,#483,#32,.T.);
#596=EDGE_CURVE('',#482,#484,#33,.T.);
#597=EDGE_CURVE('',#486,#487,#34,.T.);
#598=EDGE_CURVE('',#487,#485,#269,.T.);
#599=EDGE_CURVE('',#484,#488,#270,.T.);
#600=EDGE_CURVE('',#488,#486,#35,.T.);
#601=EDGE_CURVE('',#489,#480,#271,.T.);
#602=EDGE_CURVE('',#490,#489,#36,.T.);
#603=EDGE_CURVE('',#491,#490,#272,.T.);
#604=EDGE_CURVE('',#492,#491,#273,.T.);
#605=EDGE_CURVE('',#492,#493,#274,.T.);
#606=EDGE_CURVE('',#494,#493,#275,.T.);
#607=EDGE_CURVE('',#495,#494,#37,.T.);
#608=EDGE_CURVE('',#496,#495,#276,.T.);
#609=EDGE_CURVE('',#497,#496,#38,.T.);
#610=EDGE_CURVE('',#498,#497,#277,.T.);
#611=EDGE_CURVE('',#499,#498,#278,.T.);
#612=EDGE_CURVE('',#500,#499,#39,.T.);
#613=EDGE_CURVE('',#501,#500,#279,.T.);
#614=EDGE_CURVE('',#475,#501,#280,.T.);
#615=EDGE_CURVE('',#479,#502,#281,.T.);
#616=EDGE_CURVE('',#503,#502,#40,.T.);
#617=EDGE_CURVE('',#503,#504,#282,.T.);
#618=EDGE_CURVE('',#505,#504,#41,.T.);
#619=EDGE_CURVE('',#505,#506,#283,.T.);
#620=EDGE_CURVE('',#501,#506,#42,.T.);
#621=EDGE_CURVE('',#507,#500,#284,.T.);
#622=EDGE_CURVE('',#508,#507,#285,.T.);
#623=EDGE_CURVE('',#508,#489,#286,.T.);
#624=EDGE_CURVE('',#509,#478,#287,.T.);
#625=EDGE_CURVE('',#502,#509,#288,.T.);
#626=EDGE_CURVE('',#510,#483,#289,.T.);
#627=EDGE_CURVE('',#511,#510,#290,.T.);
#628=EDGE_CURVE('',#511,#512,#291,.T.);
#629=EDGE_CURVE('',#513,#512,#292,.T.);
#630=EDGE_CURVE('',#513,#514,#293,.T.);
#631=EDGE_CURVE('',#515,#514,#43,.T.);
#632=EDGE_CURVE('',#515,#516,#294,.T.);
#633=EDGE_CURVE('',#509,#516,#44,.T.);
#634=EDGE_CURVE('',#517,#485,#295,.T.);
#635=EDGE_CURVE('',#510,#517,#45,.T.);
#636=EDGE_CURVE('',#518,#487,#296,.T.);
#637=EDGE_CURVE('',#517,#518,#297,.T.);
#638=EDGE_CURVE('',#492,#486,#298,.T.);
#639=EDGE_CURVE('',#519,#492,#299,.T.);
#640=EDGE_CURVE('',#520,#519,#300,.T.);
#641=EDGE_CURVE('',#520,#463,#301,.T.);
#642=EDGE_CURVE('',#518,#463,#46,.T.);
#643=EDGE_CURVE('',#521,#522,#302,.T.);
#644=EDGE_CURVE('',#522,#523,#47,.T.);
#645=EDGE_CURVE('',#523,#524,#303,.T.);
#646=EDGE_CURVE('',#524,#521,#239,.T.);
#647=EDGE_CURVE('',#525,#512,#48,.T.);
#648=EDGE_CURVE('',#512,#523,#49,.T.);
#649=EDGE_CURVE('',#522,#525,#50,.T.);
#650=EDGE_CURVE('',#525,#526,#304,.T.);
#651=EDGE_CURVE('',#526,#513,#240,.T.);
#652=EDGE_CURVE('',#527,#528,#51,.T.);
#653=EDGE_CURVE('',#528,#529,#305,.T.);
#654=EDGE_CURVE('',#529,#530,#52,.T.);
#655=EDGE_CURVE('',#530,#527,#306,.T.);
#656=EDGE_CURVE('',#531,#532,#53,.T.);
#657=EDGE_CURVE('',#532,#530,#54,.T.);
#658=EDGE_CURVE('',#529,#531,#55,.T.);
#659=EDGE_CURVE('',#533,#534,#56,.T.);
#660=EDGE_CURVE('',#534,#532,#307,.T.);
#661=EDGE_CURVE('',#531,#533,#308,.T.);
#662=EDGE_CURVE('',#535,#536,#57,.T.);
#663=EDGE_CURVE('',#536,#534,#58,.T.);
#664=EDGE_CURVE('',#533,#535,#59,.T.);
#665=EDGE_CURVE('',#524,#536,#309,.T.);
#666=EDGE_CURVE('',#535,#521,#310,.T.);
#667=EDGE_CURVE('',#526,#474,#311,.T.);
#668=EDGE_CURVE('',#506,#513,#312,.T.);
#669=EDGE_CURVE('',#537,#534,#313,.T.);
#670=EDGE_CURVE('',#538,#537,#314,.T.);
#671=EDGE_CURVE('',#538,#532,#315,.T.);
#672=EDGE_CURVE('',#539,#536,#316,.T.);
#673=EDGE_CURVE('',#537,#539,#60,.T.);
#674=EDGE_CURVE('',#540,#524,#317,.T.);
#675=EDGE_CURVE('',#539,#540,#318,.T.);
#676=EDGE_CURVE('',#541,#523,#319,.T.);
#677=EDGE_CURVE('',#540,#541,#320,.T.);
#678=EDGE_CURVE('',#541,#511,#61,.T.);
#679=EDGE_CURVE('',#514,#505,#321,.T.);
#680=EDGE_CURVE('',#541,#471,#62,.T.);
#681=EDGE_CURVE('',#470,#540,#241,.T.);
#682=EDGE_CURVE('',#465,#542,#63,.T.);
#683=EDGE_CURVE('',#542,#543,#322,.T.);
#684=EDGE_CURVE('',#543,#466,#64,.T.);
#685=EDGE_CURVE('',#538,#467,#65,.T.);
#686=EDGE_CURVE('',#543,#538,#66,.T.);
#687=EDGE_CURVE('',#537,#468,#67,.T.);
#688=EDGE_CURVE('',#539,#469,#68,.T.);
#689=EDGE_CURVE('',#511,#472,#69,.T.);
#690=EDGE_CURVE('',#510,#473,#70,.T.);
#691=EDGE_CURVE('',#517,#464,#71,.T.);
#692=EDGE_CURVE('',#530,#543,#323,.T.);
#693=EDGE_CURVE('',#542,#527,#324,.T.);
#694=EDGE_CURVE('',#544,#457,#325,.T.);
#695=EDGE_CURVE('',#462,#544,#326,.T.);
#696=EDGE_CURVE('',#544,#461,#327,.T.);
#697=EDGE_CURVE('',#488,#528,#328,.T.);
#698=EDGE_CURVE('',#545,#495,#329,.T.);
#699=EDGE_CURVE('',#546,#545,#330,.T.);
#700=EDGE_CURVE('',#546,#496,#331,.T.);
#701=EDGE_CURVE('',#547,#494,#332,.T.);
#702=EDGE_CURVE('',#545,#547,#72,.T.);
#703=EDGE_CURVE('',#548,#493,#333,.T.);
#704=EDGE_CURVE('',#547,#548,#334,.T.);
#705=EDGE_CURVE('',#549,#491,#335,.T.);
#706=EDGE_CURVE('',#519,#549,#336,.T.);
#707=EDGE_CURVE('',#550,#490,#337,.T.);
#708=EDGE_CURVE('',#549,#550,#338,.T.);
#709=EDGE_CURVE('',#550,#508,#73,.T.);
#710=EDGE_CURVE('',#504,#515,#339,.T.);
#711=EDGE_CURVE('',#516,#503,#340,.T.);
#712=EDGE_CURVE('',#551,#499,#341,.T.);
#713=EDGE_CURVE('',#507,#551,#74,.T.);
#714=EDGE_CURVE('',#552,#498,#342,.T.);
#715=EDGE_CURVE('',#551,#552,#343,.T.);
#716=EDGE_CURVE('',#553,#497,#344,.T.);
#717=EDGE_CURVE('',#552,#553,#345,.T.);
#718=EDGE_CURVE('',#553,#546,#75,.T.);
#719=EDGE_CURVE('',#548,#520,#346,.T.);
#720=ORIENTED_EDGE('',*,*,#554,.T.);
#721=ORIENTED_EDGE('',*,*,#555,.T.);
#722=ORIENTED_EDGE('',*,*,#556,.T.);
#723=ORIENTED_EDGE('',*,*,#557,.F.);
#724=ORIENTED_EDGE('',*,*,#558,.T.);
#725=ORIENTED_EDGE('',*,*,#559,.T.);
#726=ORIENTED_EDGE('',*,*,#560,.T.);
#727=ORIENTED_EDGE('',*,*,#555,.F.);
#728=ORIENTED_EDGE('',*,*,#561,.T.);
#729=ORIENTED_EDGE('',*,*,#562,.T.);
#730=ORIENTED_EDGE('',*,*,#563,.T.);
#731=ORIENTED_EDGE('',*,*,#559,.F.);
#732=ORIENTED_EDGE('',*,*,#564,.T.);
#733=ORIENTED_EDGE('',*,*,#562,.F.);
#734=ORIENTED_EDGE('',*,*,#565,.T.);
#735=ORIENTED_EDGE('',*,*,#557,.T.);
#736=ORIENTED_EDGE('',*,*,#564,.F.);
#737=ORIENTED_EDGE('',*,*,#566,.F.);
#738=ORIENTED_EDGE('',*,*,#567,.F.);
#739=ORIENTED_EDGE('',*,*,#568,.T.);
#740=ORIENTED_EDGE('',*,*,#556,.F.);
#741=ORIENTED_EDGE('',*,*,#569,.F.);
#742=ORIENTED_EDGE('',*,*,#570,.F.);
#743=ORIENTED_EDGE('',*,*,#566,.T.);
#744=ORIENTED_EDGE('',*,*,#571,.F.);
#745=ORIENTED_EDGE('',*,*,#572,.T.);
#746=ORIENTED_EDGE('',*,*,#573,.F.);
#747=ORIENTED_EDGE('',*,*,#574,.F.);
#748=ORIENTED_EDGE('',*,*,#575,.F.);
#749=ORIENTED_EDGE('',*,*,#576,.F.);
#750=ORIENTED_EDGE('',*,*,#577,.F.);
#751=ORIENTED_EDGE('',*,*,#578,.F.);
#752=ORIENTED_EDGE('',*,*,#579,.F.);
#753=ORIENTED_EDGE('',*,*,#580,.F.);
#754=ORIENTED_EDGE('',*,*,#581,.F.);
#755=ORIENTED_EDGE('',*,*,#554,.F.);
#756=ORIENTED_EDGE('',*,*,#565,.F.);
#757=ORIENTED_EDGE('',*,*,#561,.F.);
#758=ORIENTED_EDGE('',*,*,#558,.F.);
#759=ORIENTED_EDGE('',*,*,#582,.F.);
#760=ORIENTED_EDGE('',*,*,#583,.T.);
#761=ORIENTED_EDGE('',*,*,#584,.T.);
#762=ORIENTED_EDGE('',*,*,#585,.T.);
#763=ORIENTED_EDGE('',*,*,#586,.T.);
#764=ORIENTED_EDGE('',*,*,#587,.T.);
#765=ORIENTED_EDGE('',*,*,#588,.T.);
#766=ORIENTED_EDGE('',*,*,#584,.F.);
#767=ORIENTED_EDGE('',*,*,#589,.T.);
#768=ORIENTED_EDGE('',*,*,#590,.T.);
#769=ORIENTED_EDGE('',*,*,#591,.T.);
#770=ORIENTED_EDGE('',*,*,#592,.T.);
#771=ORIENTED_EDGE('',*,*,#593,.T.);
#772=ORIENTED_EDGE('',*,*,#590,.F.);
#773=ORIENTED_EDGE('',*,*,#594,.T.);
#774=ORIENTED_EDGE('',*,*,#595,.T.);
#775=ORIENTED_EDGE('',*,*,#592,.F.);
#776=ORIENTED_EDGE('',*,*,#596,.T.);
#777=ORIENTED_EDGE('',*,*,#597,.T.);
#778=ORIENTED_EDGE('',*,*,#598,.T.);
#779=ORIENTED_EDGE('',*,*,#594,.F.);
#780=ORIENTED_EDGE('',*,*,#599,.T.);
#781=ORIENTED_EDGE('',*,*,#600,.T.);
#782=ORIENTED_EDGE('',*,*,#585,.F.);
#783=ORIENTED_EDGE('',*,*,#588,.F.);
#784=ORIENTED_EDGE('',*,*,#601,.F.);
#785=ORIENTED_EDGE('',*,*,#602,.F.);
#786=ORIENTED_EDGE('',*,*,#603,.F.);
#787=ORIENTED_EDGE('',*,*,#604,.F.);
#788=ORIENTED_EDGE('',*,*,#605,.T.);
#789=ORIENTED_EDGE('',*,*,#606,.F.);
#790=ORIENTED_EDGE('',*,*,#607,.F.);
#791=ORIENTED_EDGE('',*,*,#608,.F.);
#792=ORIENTED_EDGE('',*,*,#609,.F.);
#793=ORIENTED_EDGE('',*,*,#610,.F.);
#794=ORIENTED_EDGE('',*,*,#611,.F.);
#795=ORIENTED_EDGE('',*,*,#612,.F.);
#796=ORIENTED_EDGE('',*,*,#613,.F.);
#797=ORIENTED_EDGE('',*,*,#614,.F.);
#798=ORIENTED_EDGE('',*,*,#587,.F.);
#799=ORIENTED_EDGE('',*,*,#615,.T.);
#800=ORIENTED_EDGE('',*,*,#616,.F.);
#801=ORIENTED_EDGE('',*,*,#617,.T.);
#802=ORIENTED_EDGE('',*,*,#618,.F.);
#803=ORIENTED_EDGE('',*,*,#619,.T.);
#804=ORIENTED_EDGE('',*,*,#620,.F.);
#805=ORIENTED_EDGE('',*,*,#613,.T.);
#806=ORIENTED_EDGE('',*,*,#621,.F.);
#807=ORIENTED_EDGE('',*,*,#622,.F.);
#808=ORIENTED_EDGE('',*,*,#623,.T.);
#809=ORIENTED_EDGE('',*,*,#601,.T.);
#810=ORIENTED_EDGE('',*,*,#586,.F.);
#811=ORIENTED_EDGE('',*,*,#624,.F.);
#812=ORIENTED_EDGE('',*,*,#625,.F.);
#813=ORIENTED_EDGE('',*,*,#615,.F.);
#814=ORIENTED_EDGE('',*,*,#593,.F.);
#815=ORIENTED_EDGE('',*,*,#626,.F.);
#816=ORIENTED_EDGE('',*,*,#627,.F.);
#817=ORIENTED_EDGE('',*,*,#628,.T.);
#818=ORIENTED_EDGE('',*,*,#629,.F.);
#819=ORIENTED_EDGE('',*,*,#630,.T.);
#820=ORIENTED_EDGE('',*,*,#631,.F.);
#821=ORIENTED_EDGE('',*,*,#632,.T.);
#822=ORIENTED_EDGE('',*,*,#633,.F.);
#823=ORIENTED_EDGE('',*,*,#624,.T.);
#824=ORIENTED_EDGE('',*,*,#595,.F.);
#825=ORIENTED_EDGE('',*,*,#634,.F.);
#826=ORIENTED_EDGE('',*,*,#635,.F.);
#827=ORIENTED_EDGE('',*,*,#626,.T.);
#828=ORIENTED_EDGE('',*,*,#598,.F.);
#829=ORIENTED_EDGE('',*,*,#636,.F.);
#830=ORIENTED_EDGE('',*,*,#637,.F.);
#831=ORIENTED_EDGE('',*,*,#634,.T.);
#832=ORIENTED_EDGE('',*,*,#597,.F.);
#833=ORIENTED_EDGE('',*,*,#638,.F.);
#834=ORIENTED_EDGE('',*,*,#639,.F.);
#835=ORIENTED_EDGE('',*,*,#640,.F.);
#836=ORIENTED_EDGE('',*,*,#641,.T.);
#837=ORIENTED_EDGE('',*,*,#642,.F.);
#838=ORIENTED_EDGE('',*,*,#636,.T.);
#839=ORIENTED_EDGE('',*,*,#643,.T.);
#840=ORIENTED_EDGE('',*,*,#644,.T.);
#841=ORIENTED_EDGE('',*,*,#645,.T.);
#842=ORIENTED_EDGE('',*,*,#646,.T.);
#843=ORIENTED_EDGE('',*,*,#647,.T.);
#844=ORIENTED_EDGE('',*,*,#648,.T.);
#845=ORIENTED_EDGE('',*,*,#644,.F.);
#846=ORIENTED_EDGE('',*,*,#649,.T.);
#847=ORIENTED_EDGE('',*,*,#629,.T.);
#848=ORIENTED_EDGE('',*,*,#647,.F.);
#849=ORIENTED_EDGE('',*,*,#650,.T.);
#850=ORIENTED_EDGE('',*,*,#651,.T.);
#851=ORIENTED_EDGE('',*,*,#652,.T.);
#852=ORIENTED_EDGE('',*,*,#653,.T.);
#853=ORIENTED_EDGE('',*,*,#654,.T.);
#854=ORIENTED_EDGE('',*,*,#655,.T.);
#855=ORIENTED_EDGE('',*,*,#656,.T.);
#856=ORIENTED_EDGE('',*,*,#657,.T.);
#857=ORIENTED_EDGE('',*,*,#654,.F.);
#858=ORIENTED_EDGE('',*,*,#658,.T.);
#859=ORIENTED_EDGE('',*,*,#659,.T.);
#860=ORIENTED_EDGE('',*,*,#660,.T.);
#861=ORIENTED_EDGE('',*,*,#656,.F.);
#862=ORIENTED_EDGE('',*,*,#661,.T.);
#863=ORIENTED_EDGE('',*,*,#662,.T.);
#864=ORIENTED_EDGE('',*,*,#663,.T.);
#865=ORIENTED_EDGE('',*,*,#659,.F.);
#866=ORIENTED_EDGE('',*,*,#664,.T.);
#867=ORIENTED_EDGE('',*,*,#665,.T.);
#868=ORIENTED_EDGE('',*,*,#662,.F.);
#869=ORIENTED_EDGE('',*,*,#666,.T.);
#870=ORIENTED_EDGE('',*,*,#646,.F.);
#871=ORIENTED_EDGE('',*,*,#667,.T.);
#872=ORIENTED_EDGE('',*,*,#582,.T.);
#873=ORIENTED_EDGE('',*,*,#614,.T.);
#874=ORIENTED_EDGE('',*,*,#620,.T.);
#875=ORIENTED_EDGE('',*,*,#668,.T.);
#876=ORIENTED_EDGE('',*,*,#651,.F.);
#877=ORIENTED_EDGE('',*,*,#660,.F.);
#878=ORIENTED_EDGE('',*,*,#669,.F.);
#879=ORIENTED_EDGE('',*,*,#670,.F.);
#880=ORIENTED_EDGE('',*,*,#671,.T.);
#881=ORIENTED_EDGE('',*,*,#663,.F.);
#882=ORIENTED_EDGE('',*,*,#672,.F.);
#883=ORIENTED_EDGE('',*,*,#673,.F.);
#884=ORIENTED_EDGE('',*,*,#669,.T.);
#885=ORIENTED_EDGE('',*,*,#665,.F.);
#886=ORIENTED_EDGE('',*,*,#674,.F.);
#887=ORIENTED_EDGE('',*,*,#675,.F.);
#888=ORIENTED_EDGE('',*,*,#672,.T.);
#889=ORIENTED_EDGE('',*,*,#645,.F.);
#890=ORIENTED_EDGE('',*,*,#676,.F.);
#891=ORIENTED_EDGE('',*,*,#677,.F.);
#892=ORIENTED_EDGE('',*,*,#674,.T.);
#893=ORIENTED_EDGE('',*,*,#648,.F.);
#894=ORIENTED_EDGE('',*,*,#628,.F.);
#895=ORIENTED_EDGE('',*,*,#678,.F.);
#896=ORIENTED_EDGE('',*,*,#676,.T.);
#897=ORIENTED_EDGE('',*,*,#668,.F.);
#898=ORIENTED_EDGE('',*,*,#619,.F.);
#899=ORIENTED_EDGE('',*,*,#679,.F.);
#900=ORIENTED_EDGE('',*,*,#630,.F.);
#901=ORIENTED_EDGE('',*,*,#677,.T.);
#902=ORIENTED_EDGE('',*,*,#680,.T.);
#903=ORIENTED_EDGE('',*,*,#578,.T.);
#904=ORIENTED_EDGE('',*,*,#681,.T.);
#905=ORIENTED_EDGE('',*,*,#682,.T.);
#906=ORIENTED_EDGE('',*,*,#683,.T.);
#907=ORIENTED_EDGE('',*,*,#684,.T.);
#908=ORIENTED_EDGE('',*,*,#573,.T.);
#909=ORIENTED_EDGE('',*,*,#685,.T.);
#910=ORIENTED_EDGE('',*,*,#574,.T.);
#911=ORIENTED_EDGE('',*,*,#684,.F.);
#912=ORIENTED_EDGE('',*,*,#686,.T.);
#913=ORIENTED_EDGE('',*,*,#687,.T.);
#914=ORIENTED_EDGE('',*,*,#575,.T.);
#915=ORIENTED_EDGE('',*,*,#685,.F.);
#916=ORIENTED_EDGE('',*,*,#670,.T.);
#917=ORIENTED_EDGE('',*,*,#688,.T.);
#918=ORIENTED_EDGE('',*,*,#576,.T.);
#919=ORIENTED_EDGE('',*,*,#687,.F.);
#920=ORIENTED_EDGE('',*,*,#673,.T.);
#921=ORIENTED_EDGE('',*,*,#577,.T.);
#922=ORIENTED_EDGE('',*,*,#688,.F.);
#923=ORIENTED_EDGE('',*,*,#675,.T.);
#924=ORIENTED_EDGE('',*,*,#681,.F.);
#925=ORIENTED_EDGE('',*,*,#689,.T.);
#926=ORIENTED_EDGE('',*,*,#579,.T.);
#927=ORIENTED_EDGE('',*,*,#680,.F.);
#928=ORIENTED_EDGE('',*,*,#678,.T.);
#929=ORIENTED_EDGE('',*,*,#690,.T.);
#930=ORIENTED_EDGE('',*,*,#580,.T.);
#931=ORIENTED_EDGE('',*,*,#689,.F.);
#932=ORIENTED_EDGE('',*,*,#627,.T.);
#933=ORIENTED_EDGE('',*,*,#691,.T.);
#934=ORIENTED_EDGE('',*,*,#581,.T.);
#935=ORIENTED_EDGE('',*,*,#690,.F.);
#936=ORIENTED_EDGE('',*,*,#635,.T.);
#937=ORIENTED_EDGE('',*,*,#642,.T.);
#938=ORIENTED_EDGE('',*,*,#571,.T.);
#939=ORIENTED_EDGE('',*,*,#691,.F.);
#940=ORIENTED_EDGE('',*,*,#637,.T.);
#941=ORIENTED_EDGE('',*,*,#657,.F.);
#942=ORIENTED_EDGE('',*,*,#671,.F.);
#943=ORIENTED_EDGE('',*,*,#686,.F.);
#944=ORIENTED_EDGE('',*,*,#692,.F.);
#945=ORIENTED_EDGE('',*,*,#655,.F.);
#946=ORIENTED_EDGE('',*,*,#692,.T.);
#947=ORIENTED_EDGE('',*,*,#683,.F.);
#948=ORIENTED_EDGE('',*,*,#693,.T.);
#949=ORIENTED_EDGE('',*,*,#560,.F.);
#950=ORIENTED_EDGE('',*,*,#694,.F.);
#951=ORIENTED_EDGE('',*,*,#695,.F.);
#952=ORIENTED_EDGE('',*,*,#569,.T.);
#953=ORIENTED_EDGE('',*,*,#563,.F.);
#954=ORIENTED_EDGE('',*,*,#568,.F.);
#955=ORIENTED_EDGE('',*,*,#696,.F.);
#956=ORIENTED_EDGE('',*,*,#694,.T.);
#957=ORIENTED_EDGE('',*,*,#667,.F.);
#958=ORIENTED_EDGE('',*,*,#650,.F.);
#959=ORIENTED_EDGE('',*,*,#649,.F.);
#960=ORIENTED_EDGE('',*,*,#643,.F.);
#961=ORIENTED_EDGE('',*,*,#666,.F.);
#962=ORIENTED_EDGE('',*,*,#664,.F.);
#963=ORIENTED_EDGE('',*,*,#661,.F.);
#964=ORIENTED_EDGE('',*,*,#658,.F.);
#965=ORIENTED_EDGE('',*,*,#653,.F.);
#966=ORIENTED_EDGE('',*,*,#697,.F.);
#967=ORIENTED_EDGE('',*,*,#599,.F.);
#968=ORIENTED_EDGE('',*,*,#596,.F.);
#969=ORIENTED_EDGE('',*,*,#591,.F.);
#970=ORIENTED_EDGE('',*,*,#589,.F.);
#971=ORIENTED_EDGE('',*,*,#583,.F.);
#972=ORIENTED_EDGE('',*,*,#608,.T.);
#973=ORIENTED_EDGE('',*,*,#698,.F.);
#974=ORIENTED_EDGE('',*,*,#699,.F.);
#975=ORIENTED_EDGE('',*,*,#700,.T.);
#976=ORIENTED_EDGE('',*,*,#607,.T.);
#977=ORIENTED_EDGE('',*,*,#701,.F.);
#978=ORIENTED_EDGE('',*,*,#702,.F.);
#979=ORIENTED_EDGE('',*,*,#698,.T.);
#980=ORIENTED_EDGE('',*,*,#606,.T.);
#981=ORIENTED_EDGE('',*,*,#703,.F.);
#982=ORIENTED_EDGE('',*,*,#704,.F.);
#983=ORIENTED_EDGE('',*,*,#701,.T.);
#984=ORIENTED_EDGE('',*,*,#604,.T.);
#985=ORIENTED_EDGE('',*,*,#705,.F.);
#986=ORIENTED_EDGE('',*,*,#706,.F.);
#987=ORIENTED_EDGE('',*,*,#639,.T.);
#988=ORIENTED_EDGE('',*,*,#603,.T.);
#989=ORIENTED_EDGE('',*,*,#707,.F.);
#990=ORIENTED_EDGE('',*,*,#708,.F.);
#991=ORIENTED_EDGE('',*,*,#705,.T.);
#992=ORIENTED_EDGE('',*,*,#602,.T.);
#993=ORIENTED_EDGE('',*,*,#623,.F.);
#994=ORIENTED_EDGE('',*,*,#709,.F.);
#995=ORIENTED_EDGE('',*,*,#707,.T.);
#996=ORIENTED_EDGE('',*,*,#631,.T.);
#997=ORIENTED_EDGE('',*,*,#679,.T.);
#998=ORIENTED_EDGE('',*,*,#618,.T.);
#999=ORIENTED_EDGE('',*,*,#710,.T.);
#1000=ORIENTED_EDGE('',*,*,#633,.T.);
#1001=ORIENTED_EDGE('',*,*,#711,.T.);
#1002=ORIENTED_EDGE('',*,*,#616,.T.);
#1003=ORIENTED_EDGE('',*,*,#625,.T.);
#1004=ORIENTED_EDGE('',*,*,#710,.F.);
#1005=ORIENTED_EDGE('',*,*,#617,.F.);
#1006=ORIENTED_EDGE('',*,*,#711,.F.);
#1007=ORIENTED_EDGE('',*,*,#632,.F.);
#1008=ORIENTED_EDGE('',*,*,#612,.T.);
#1009=ORIENTED_EDGE('',*,*,#712,.F.);
#1010=ORIENTED_EDGE('',*,*,#713,.F.);
#1011=ORIENTED_EDGE('',*,*,#621,.T.);
#1012=ORIENTED_EDGE('',*,*,#611,.T.);
#1013=ORIENTED_EDGE('',*,*,#714,.F.);
#1014=ORIENTED_EDGE('',*,*,#715,.F.);
#1015=ORIENTED_EDGE('',*,*,#712,.T.);
#1016=ORIENTED_EDGE('',*,*,#610,.T.);
#1017=ORIENTED_EDGE('',*,*,#716,.F.);
#1018=ORIENTED_EDGE('',*,*,#717,.F.);
#1019=ORIENTED_EDGE('',*,*,#714,.T.);
#1020=ORIENTED_EDGE('',*,*,#609,.T.);
#1021=ORIENTED_EDGE('',*,*,#700,.F.);
#1022=ORIENTED_EDGE('',*,*,#718,.F.);
#1023=ORIENTED_EDGE('',*,*,#716,.T.);
#1024=ORIENTED_EDGE('',*,*,#600,.F.);
#1025=ORIENTED_EDGE('',*,*,#697,.T.);
#1026=ORIENTED_EDGE('',*,*,#652,.F.);
#1027=ORIENTED_EDGE('',*,*,#693,.F.);
#1028=ORIENTED_EDGE('',*,*,#682,.F.);
#1029=ORIENTED_EDGE('',*,*,#572,.F.);
#1030=ORIENTED_EDGE('',*,*,#641,.F.);
#1031=ORIENTED_EDGE('',*,*,#719,.F.);
#1032=ORIENTED_EDGE('',*,*,#703,.T.);
#1033=ORIENTED_EDGE('',*,*,#605,.F.);
#1034=ORIENTED_EDGE('',*,*,#638,.T.);
#1035=ORIENTED_EDGE('',*,*,#704,.T.);
#1036=ORIENTED_EDGE('',*,*,#719,.T.);
#1037=ORIENTED_EDGE('',*,*,#640,.T.);
#1038=ORIENTED_EDGE('',*,*,#706,.T.);
#1039=ORIENTED_EDGE('',*,*,#708,.T.);
#1040=ORIENTED_EDGE('',*,*,#709,.T.);
#1041=ORIENTED_EDGE('',*,*,#622,.T.);
#1042=ORIENTED_EDGE('',*,*,#713,.T.);
#1043=ORIENTED_EDGE('',*,*,#715,.T.);
#1044=ORIENTED_EDGE('',*,*,#717,.T.);
#1045=ORIENTED_EDGE('',*,*,#718,.T.);
#1046=ORIENTED_EDGE('',*,*,#699,.T.);
#1047=ORIENTED_EDGE('',*,*,#702,.T.);
#1048=ORIENTED_EDGE('',*,*,#696,.T.);
#1049=ORIENTED_EDGE('',*,*,#567,.T.);
#1050=ORIENTED_EDGE('',*,*,#570,.T.);
#1051=ORIENTED_EDGE('',*,*,#695,.T.);
#1052=CYLINDRICAL_SURFACE('',#1160,2.);
#1053=CYLINDRICAL_SURFACE('',#1163,2.);
#1054=CYLINDRICAL_SURFACE('',#1165,2.);
#1055=CYLINDRICAL_SURFACE('',#1167,2.);
#1056=CYLINDRICAL_SURFACE('',#1175,2.);
#1057=CYLINDRICAL_SURFACE('',#1178,2.);
#1058=CYLINDRICAL_SURFACE('',#1181,2.);
#1059=CYLINDRICAL_SURFACE('',#1187,2.);
#1060=CYLINDRICAL_SURFACE('',#1203,5.99999850585027);
#1061=CYLINDRICAL_SURFACE('',#1208,2.);
#1062=CYLINDRICAL_SURFACE('',#1215,2.);
#1063=CYLINDRICAL_SURFACE('',#1217,2.);
#1064=CYLINDRICAL_SURFACE('',#1224,2.);
#1065=CYLINDRICAL_SURFACE('',#1230,2.);
#1066=CYLINDRICAL_SURFACE('',#1231,2.);
#1067=CYLINDRICAL_SURFACE('',#1233,5.99987538803873);
#1068=CYLINDRICAL_SURFACE('',#1237,5.99999952142592);
#1069=CYLINDRICAL_SURFACE('',#1240,2.);
#1070=CYLINDRICAL_SURFACE('',#1243,2.);
#1071=CYLINDRICAL_SURFACE('',#1249,2.);
#1072=CYLINDRICAL_SURFACE('',#1253,2.);
#1073=CYLINDRICAL_SURFACE('',#1256,2.);
#1074=CYLINDRICAL_SURFACE('',#1260,2.);
#1075=CYLINDRICAL_SURFACE('',#1261,6.00010509091136);
#1076=CYLINDRICAL_SURFACE('',#1267,4.20010509092856);
#1077=CYLINDRICAL_SURFACE('',#1272,4.19999850585091);
#1078=CYLINDRICAL_SURFACE('',#1274,2.);
#1079=CYLINDRICAL_SURFACE('',#1275,2.);
#1080=CYLINDRICAL_SURFACE('',#1277,4.19999952142593);
#1081=CYLINDRICAL_SURFACE('',#1281,4.19987538803873);
#1082=ADVANCED_FACE('',(#102),#1052,.T.);
#1083=ADVANCED_FACE('',(#103),#1053,.T.);
#1084=ADVANCED_FACE('',(#104),#1054,.T.);
#1085=ADVANCED_FACE('',(#105),#1055,.T.);
#1086=ADVANCED_FACE('',(#106),#76,.T.);
#1087=ADVANCED_FACE('',(#107),#77,.T.);
#1088=ADVANCED_FACE('',(#108,#23),#78,.F.);
#1089=ADVANCED_FACE('',(#109),#1056,.T.);
#1090=ADVANCED_FACE('',(#110),#1057,.T.);
#1091=ADVANCED_FACE('',(#111),#1058,.T.);
#1092=ADVANCED_FACE('',(#112),#15,.T.);
#1093=ADVANCED_FACE('',(#113),#1059,.T.);
#1094=ADVANCED_FACE('',(#114),#79,.F.);
#1095=ADVANCED_FACE('',(#115),#80,.T.);
#1096=ADVANCED_FACE('',(#116),#81,.F.);
#1097=ADVANCED_FACE('',(#117),#82,.T.);
#1098=ADVANCED_FACE('',(#118),#1060,.T.);
#1099=ADVANCED_FACE('',(#119),#83,.T.);
#1100=ADVANCED_FACE('',(#120),#84,.T.);
#1101=ADVANCED_FACE('',(#121),#1061,.T.);
#1102=ADVANCED_FACE('',(#122),#16,.T.);
#1103=ADVANCED_FACE('',(#123),#1062,.T.);
#1104=ADVANCED_FACE('',(#124),#1063,.T.);
#1105=ADVANCED_FACE('',(#125),#17,.T.);
#1106=ADVANCED_FACE('',(#126),#1064,.T.);
#1107=ADVANCED_FACE('',(#127),#18,.T.);
#1108=ADVANCED_FACE('',(#128),#1065,.T.);
#1109=ADVANCED_FACE('',(#129),#1066,.T.);
#1110=ADVANCED_FACE('',(#130),#85,.T.);
#1111=ADVANCED_FACE('',(#131),#1067,.T.);
#1112=ADVANCED_FACE('',(#132),#86,.T.);
#1113=ADVANCED_FACE('',(#133),#87,.T.);
#1114=ADVANCED_FACE('',(#134),#1068,.T.);
#1115=ADVANCED_FACE('',(#135),#88,.F.);
#1116=ADVANCED_FACE('',(#136),#1069,.T.);
#1117=ADVANCED_FACE('',(#137),#1070,.T.);
#1118=ADVANCED_FACE('',(#138),#19,.T.);
#1119=ADVANCED_FACE('',(#139),#1071,.T.);
#1120=ADVANCED_FACE('',(#140),#20,.T.);
#1121=ADVANCED_FACE('',(#141),#1072,.T.);
#1122=ADVANCED_FACE('',(#142),#21,.T.);
#1123=ADVANCED_FACE('',(#143),#1073,.T.);
#1124=ADVANCED_FACE('',(#144),#22,.T.);
#1125=ADVANCED_FACE('',(#145),#1074,.T.);
#1126=ADVANCED_FACE('',(#146),#1075,.T.);
#1127=ADVANCED_FACE('',(#147),#89,.T.);
#1128=ADVANCED_FACE('',(#148),#90,.T.);
#1129=ADVANCED_FACE('',(#149),#91,.T.);
#1130=ADVANCED_FACE('',(#150),#92,.T.);
#1131=ADVANCED_FACE('',(#151),#93,.T.);
#1132=ADVANCED_FACE('',(#152),#1076,.F.);
#1133=ADVANCED_FACE('',(#153),#94,.T.);
#1134=ADVANCED_FACE('',(#154),#95,.T.);
#1135=ADVANCED_FACE('',(#155),#96,.T.);
#1136=ADVANCED_FACE('',(#156),#1077,.F.);
#1137=ADVANCED_FACE('',(#157),#1078,.F.);
#1138=ADVANCED_FACE('',(#158),#1079,.F.);
#1139=ADVANCED_FACE('',(#159),#97,.F.);
#1140=ADVANCED_FACE('',(#160),#1080,.F.);
#1141=ADVANCED_FACE('',(#161),#98,.T.);
#1142=ADVANCED_FACE('',(#162),#99,.T.);
#1143=ADVANCED_FACE('',(#163),#1081,.F.);
#1144=ADVANCED_FACE('',(#164),#100,.T.);
#1145=ADVANCED_FACE('',(#165,#24),#101,.T.);
#1146=CLOSED_SHELL('',(#1082,#1083,#1084,#1085,#1086,#1087,#1088,#1089,
#1090,#1091,#1092,#1093,#1094,#1095,#1096,#1097,#1098,#1099,#1100,#1101,
#1102,#1103,#1104,#1105,#1106,#1107,#1108,#1109,#1110,#1111,#1112,#1113,
#1114,#1115,#1116,#1117,#1118,#1119,#1120,#1121,#1122,#1123,#1124,#1125,
#1126,#1127,#1128,#1129,#1130,#1131,#1132,#1133,#1134,#1135,#1136,#1137,
#1138,#1139,#1140,#1141,#1142,#1143,#1144,#1145));
#1147=DERIVED_UNIT_ELEMENT(#1149,1.);
#1148=DERIVED_UNIT_ELEMENT(#1980,-3.);
#1149=(
MASS_UNIT()
NAMED_UNIT(*)
SI_UNIT(.KILO.,.GRAM.)
);
#1150=DERIVED_UNIT((#1147,#1148));
#1151=MEASURE_REPRESENTATION_ITEM('density measure',
POSITIVE_RATIO_MEASURE(7850.),#1150);
#1152=PROPERTY_DEFINITION_REPRESENTATION(#1157,#1154);
#1153=PROPERTY_DEFINITION_REPRESENTATION(#1158,#1155);
#1154=REPRESENTATION('material name',(#1156),#1977);
#1155=REPRESENTATION('density',(#1151),#1977);
#1156=DESCRIPTIVE_REPRESENTATION_ITEM('Steel','Steel');
#1157=PROPERTY_DEFINITION('material property','material name',#1987);
#1158=PROPERTY_DEFINITION('material property','density of part',#1987);
#1159=AXIS2_PLACEMENT_3D('',#1642,#1285,#1286);
#1160=AXIS2_PLACEMENT_3D('',#1643,#1287,#1288);
#1161=AXIS2_PLACEMENT_3D('',#1648,#1290,#1291);
#1162=AXIS2_PLACEMENT_3D('',#1651,#1293,#1294);
#1163=AXIS2_PLACEMENT_3D('',#1652,#1295,#1296);
#1164=AXIS2_PLACEMENT_3D('',#1656,#1298,#1299);
#1165=AXIS2_PLACEMENT_3D('',#1658,#1301,#1302);
#1166=AXIS2_PLACEMENT_3D('',#1662,#1304,#1305);
#1167=AXIS2_PLACEMENT_3D('',#1664,#1307,#1308);
#1168=AXIS2_PLACEMENT_3D('',#1667,#1311,#1312);
#1169=AXIS2_PLACEMENT_3D('',#1673,#1316,#1317);
#1170=AXIS2_PLACEMENT_3D('',#1677,#1320,#1321);
#1171=AXIS2_PLACEMENT_3D('',#1686,#1325,#1326);
#1172=AXIS2_PLACEMENT_3D('',#1690,#1328,#1329);
#1173=AXIS2_PLACEMENT_3D('',#1696,#1332,#1333);
#1174=AXIS2_PLACEMENT_3D('',#1699,#1335,#1336);
#1175=AXIS2_PLACEMENT_3D('',#1700,#1337,#1338);
#1176=AXIS2_PLACEMENT_3D('',#1703,#1339,#1340);
#1177=AXIS2_PLACEMENT_3D('',#1707,#1342,#1343);
#1178=AXIS2_PLACEMENT_3D('',#1709,#1345,#1346);
#1179=AXIS2_PLACEMENT_3D('',#1714,#1348,#1349);
#1180=AXIS2_PLACEMENT_3D('',#1718,#1352,#1353);
#1181=AXIS2_PLACEMENT_3D('',#1719,#1354,#1355);
#1182=AXIS2_PLACEMENT_3D('',#1723,#1357,#1358);
#1183=AXIS2_PLACEMENT_3D('',#1725,#1360,#1361);
#1184=AXIS2_PLACEMENT_3D('',#1728,#1362,#1363);
#1185=AXIS2_PLACEMENT_3D('',#1729,#1364,#1365);
#1186=AXIS2_PLACEMENT_3D('',#1730,#1366,#1367);
#1187=AXIS2_PLACEMENT_3D('',#1731,#1368,#1369);
#1188=AXIS2_PLACEMENT_3D('',#1734,#1370,#1371);
#1189=AXIS2_PLACEMENT_3D('',#1738,#1374,#1375);
#1190=AXIS2_PLACEMENT_3D('',#1739,#1376,#1377);
#1191=AXIS2_PLACEMENT_3D('',#1743,#1379,#1380);
#1192=AXIS2_PLACEMENT_3D('',#1753,#1385,#1386);
#1193=AXIS2_PLACEMENT_3D('',#1757,#1388,#1389);
#1194=AXIS2_PLACEMENT_3D('',#1763,#1392,#1393);
#1195=AXIS2_PLACEMENT_3D('',#1767,#1396,#1397);
#1196=AXIS2_PLACEMENT_3D('',#1771,#1399,#1400);
#1197=AXIS2_PLACEMENT_3D('',#1775,#1402,#1403);
#1198=AXIS2_PLACEMENT_3D('',#1778,#1405,#1406);
#1199=AXIS2_PLACEMENT_3D('',#1784,#1410,#1411);
#1200=AXIS2_PLACEMENT_3D('',#1788,#1414,#1415);
#1201=AXIS2_PLACEMENT_3D('',#1800,#1421,#1422);
#1202=AXIS2_PLACEMENT_3D('',#1803,#1424,#1425);
#1203=AXIS2_PLACEMENT_3D('',#1804,#1426,#1427);
#1204=AXIS2_PLACEMENT_3D('',#1807,#1429,#1430);
#1205=AXIS2_PLACEMENT_3D('',#1808,#1431,#1432);
#1206=AXIS2_PLACEMENT_3D('',#1812,#1435,#1436);
#1207=AXIS2_PLACEMENT_3D('',#1819,#1441,#1442);
#1208=AXIS2_PLACEMENT_3D('',#1820,#1443,#1444);
#1209=AXIS2_PLACEMENT_3D('',#1825,#1446,#1447);
#1210=AXIS2_PLACEMENT_3D('',#1828,#1449,#1450);
#1211=AXIS2_PLACEMENT_3D('',#1829,#1451,#1452);
#1212=AXIS2_PLACEMENT_3D('',#1831,#1453,#1454);
#1213=AXIS2_PLACEMENT_3D('',#1832,#1455,#1456);
#1214=AXIS2_PLACEMENT_3D('',#1833,#1457,#1458);
#1215=AXIS2_PLACEMENT_3D('',#1834,#1459,#1460);
#1216=AXIS2_PLACEMENT_3D('',#1837,#1462,#1463);
#1217=AXIS2_PLACEMENT_3D('',#1838,#1464,#1465);
#1218=AXIS2_PLACEMENT_3D('',#1841,#1466,#1467);
#1219=AXIS2_PLACEMENT_3D('',#1845,#1469,#1470);
#1220=AXIS2_PLACEMENT_3D('',#1847,#1472,#1473);
#1221=AXIS2_PLACEMENT_3D('',#1850,#1474,#1475);
#1222=AXIS2_PLACEMENT_3D('',#1851,#1476,#1477);
#1223=AXIS2_PLACEMENT_3D('',#1852,#1478,#1479);
#1224=AXIS2_PLACEMENT_3D('',#1853,#1480,#1481);
#1225=AXIS2_PLACEMENT_3D('',#1856,#1482,#1483);
#1226=AXIS2_PLACEMENT_3D('',#1859,#1486,#1487);
#1227=AXIS2_PLACEMENT_3D('',#1862,#1488,#1489);
#1228=AXIS2_PLACEMENT_3D('',#1863,#1490,#1491);
#1229=AXIS2_PLACEMENT_3D('',#1864,#1492,#1493);
#1230=AXIS2_PLACEMENT_3D('',#1865,#1494,#1495);
#1231=AXIS2_PLACEMENT_3D('',#1868,#1498,#1499);
#1232=AXIS2_PLACEMENT_3D('',#1871,#1502,#1503);
#1233=AXIS2_PLACEMENT_3D('',#1877,#1507,#1508);
#1234=AXIS2_PLACEMENT_3D('',#1880,#1510,#1511);
#1235=AXIS2_PLACEMENT_3D('',#1881,#1512,#1513);
#1236=AXIS2_PLACEMENT_3D('',#1885,#1516,#1517);
#1237=AXIS2_PLACEMENT_3D('',#1889,#1520,#1521);
#1238=AXIS2_PLACEMENT_3D('',#1890,#1522,#1523);
#1239=AXIS2_PLACEMENT_3D('',#1891,#1524,#1525);
#1240=AXIS2_PLACEMENT_3D('',#1893,#1527,#1528);
#1241=AXIS2_PLACEMENT_3D('',#1894,#1529,#1530);
#1242=AXIS2_PLACEMENT_3D('',#1895,#1531,#1532);
#1243=AXIS2_PLACEMENT_3D('',#1896,#1533,#1534);
#1244=AXIS2_PLACEMENT_3D('',#1898,#1535,#1536);
#1245=AXIS2_PLACEMENT_3D('',#1901,#1538,#1539);
#1246=AXIS2_PLACEMENT_3D('',#1902,#1540,#1541);
#1247=AXIS2_PLACEMENT_3D('',#1903,#1542,#1543);
#1248=AXIS2_PLACEMENT_3D('',#1904,#1544,#1545);
#1249=AXIS2_PLACEMENT_3D('',#1905,#1546,#1547);
#1250=AXIS2_PLACEMENT_3D('',#1906,#1548,#1549);
#1251=AXIS2_PLACEMENT_3D('',#1907,#1550,#1551);
#1252=AXIS2_PLACEMENT_3D('',#1908,#1552,#1553);
#1253=AXIS2_PLACEMENT_3D('',#1909,#1554,#1555);
#1254=AXIS2_PLACEMENT_3D('',#1910,#1556,#1557);
#1255=AXIS2_PLACEMENT_3D('',#1911,#1558,#1559);
#1256=AXIS2_PLACEMENT_3D('',#1912,#1560,#1561);
#1257=AXIS2_PLACEMENT_3D('',#1913,#1562,#1563);
#1258=AXIS2_PLACEMENT_3D('',#1914,#1564,#1565);
#1259=AXIS2_PLACEMENT_3D('',#1915,#1566,#1567);
#1260=AXIS2_PLACEMENT_3D('',#1916,#1568,#1569);
#1261=AXIS2_PLACEMENT_3D('',#1917,#1570,#1571);
#1262=AXIS2_PLACEMENT_3D('',#1919,#1573,#1574);
#1263=AXIS2_PLACEMENT_3D('',#1921,#1576,#1577);
#1264=AXIS2_PLACEMENT_3D('',#1925,#1580,#1581);
#1265=AXIS2_PLACEMENT_3D('',#1927,#1583,#1584);
#1266=AXIS2_PLACEMENT_3D('',#1929,#1586,#1587);
#1267=AXIS2_PLACEMENT_3D('',#1935,#1591,#1592);
#1268=AXIS2_PLACEMENT_3D('',#1938,#1594,#1595);
#1269=AXIS2_PLACEMENT_3D('',#1939,#1596,#1597);
#1270=AXIS2_PLACEMENT_3D('',#1943,#1600,#1601);
#1271=AXIS2_PLACEMENT_3D('',#1947,#1604,#1605);
#1272=AXIS2_PLACEMENT_3D('',#1951,#1608,#1609);
#1273=AXIS2_PLACEMENT_3D('',#1952,#1610,#1611);
#1274=AXIS2_PLACEMENT_3D('',#1953,#1612,#1613);
#1275=AXIS2_PLACEMENT_3D('',#1955,#1615,#1616);
#1276=AXIS2_PLACEMENT_3D('',#1957,#1618,#1619);
#1277=AXIS2_PLACEMENT_3D('',#1958,#1620,#1621);
#1278=AXIS2_PLACEMENT_3D('',#1961,#1623,#1624);
#1279=AXIS2_PLACEMENT_3D('',#1962,#1625,#1626);
#1280=AXIS2_PLACEMENT_3D('',#1966,#1629,#1630);
#1281=AXIS2_PLACEMENT_3D('',#1970,#1633,#1634);
#1282=AXIS2_PLACEMENT_3D('',#1971,#1635,#1636);
#1283=AXIS2_PLACEMENT_3D('',#1972,#1637,#1638);
#1284=AXIS2_PLACEMENT_3D('',#1974,#1640,#1641);
#1285=DIRECTION('axis',(0.,0.,1.));
#1286=DIRECTION('refdir',(1.,0.,0.));
#1287=DIRECTION('center_axis',(-1.,0.,0.));
#1288=DIRECTION('ref_axis',(0.,0.707106781186548,0.707106781186547));
#1289=DIRECTION('',(1.,0.,0.));
#1290=DIRECTION('center_axis',(-0.707106781186548,-0.707106781186548,0.));
#1291=DIRECTION('ref_axis',(0.707106781186547,-0.707106781186547,0.));
#1292=DIRECTION('',(-1.,0.,0.));
#1293=DIRECTION('center_axis',(-0.707106781186548,0.707106781186547,1.96261557335472E-16));
#1294=DIRECTION('ref_axis',(-0.707106781186547,-0.707106781186548,1.96261557335472E-16));
#1295=DIRECTION('center_axis',(0.,-1.,0.));
#1296=DIRECTION('ref_axis',(-0.707106781186548,0.,0.707106781186547));
#1297=DIRECTION('',(0.,1.,0.));
#1298=DIRECTION('center_axis',(0.707106781186548,-0.707106781186548,0.));
#1299=DIRECTION('ref_axis',(0.707106781186547,0.707106781186547,0.));
#1300=DIRECTION('',(0.,-1.,0.));
#1301=DIRECTION('center_axis',(1.,0.,0.));
#1302=DIRECTION('ref_axis',(0.,-0.707106781186548,0.707106781186547));
#1303=DIRECTION('',(-1.,0.,0.));
#1304=DIRECTION('center_axis',(0.707106781186548,0.707106781186547,0.));
#1305=DIRECTION('ref_axis',(-0.707106781186547,0.707106781186548,0.));
#1306=DIRECTION('',(1.,0.,0.));
#1307=DIRECTION('center_axis',(0.,1.,0.));
#1308=DIRECTION('ref_axis',(0.707106781186548,0.,0.707106781186547));
#1309=DIRECTION('',(0.,1.,0.));
#1310=DIRECTION('',(0.,-1.,0.));
#1311=DIRECTION('center_axis',(1.,0.,0.));
#1312=DIRECTION('ref_axis',(0.,1.,0.));
#1313=DIRECTION('',(0.,0.,1.));
#1314=DIRECTION('',(0.,-1.,0.));
#1315=DIRECTION('',(0.,0.,1.));
#1316=DIRECTION('center_axis',(0.,1.,0.));
#1317=DIRECTION('ref_axis',(-1.,0.,0.));
#1318=DIRECTION('',(0.,0.,1.));
#1319=DIRECTION('',(1.,0.,0.));
#1320=DIRECTION('center_axis',(0.,0.,-1.));
#1321=DIRECTION('ref_axis',(1.,0.,0.));
#1322=DIRECTION('',(-4.28648280943326E-8,0.999999999999999,0.));
#1323=DIRECTION('',(1.,-1.13191965821553E-11,0.));
#1324=DIRECTION('',(-1.13196641567144E-11,-1.,0.));
#1325=DIRECTION('center_axis',(0.,0.,-1.));
#1326=DIRECTION('ref_axis',(0.923880666876614,0.382680693753453,0.));
#1327=DIRECTION('',(0.707106781109439,-0.707106781263657,0.));
#1328=DIRECTION('center_axis',(0.,0.,-1.));
#1329=DIRECTION('ref_axis',(0.382682381888101,0.923879967632403,0.));
#1330=DIRECTION('',(1.,1.27549686032561E-11,0.));
#1331=DIRECTION('',(0.707106781186601,-0.707106781186494,0.));
#1332=DIRECTION('center_axis',(0.,0.,-1.));
#1333=DIRECTION('ref_axis',(0.38268338300492,0.923879552956937,0.));
#1334=DIRECTION('',(1.,-5.88361808126898E-16,0.));
#1335=DIRECTION('center_axis',(0.,0.,-1.));
#1336=DIRECTION('ref_axis',(-0.707106957273969,0.707106605099082,0.));
#1337=DIRECTION('center_axis',(-1.,0.,0.));
#1338=DIRECTION('ref_axis',(0.,0.998749217771909,-0.0499999999999995));
#1339=DIRECTION('center_axis',(0.707106781186548,0.707106781186547,0.));
#1340=DIRECTION('ref_axis',(-0.707106781186547,0.707106781186548,6.13317366673351E-18));
#1341=DIRECTION('',(-1.,0.,0.));
#1342=DIRECTION('center_axis',(-0.707106781186546,0.707106781186549,0.));
#1343=DIRECTION('ref_axis',(0.707106781186549,0.707106781186546,0.));
#1344=DIRECTION('',(1.,0.,0.));
#1345=DIRECTION('center_axis',(0.,1.,0.));
#1346=DIRECTION('ref_axis',(0.707106781186548,0.,-0.707106781186547));
#1347=DIRECTION('',(0.,-1.,0.));
#1348=DIRECTION('center_axis',(5.58943709422086E-15,1.,0.));
#1349=DIRECTION('ref_axis',(0.707106781186548,0.,-0.707106781186547));
#1350=DIRECTION('',(0.,-1.,0.));
#1351=DIRECTION('',(0.,1.,0.));
#1352=DIRECTION('center_axis',(0.707106781186546,-0.707106781186549,0.));
#1353=DIRECTION('ref_axis',(-0.707106781186549,-0.707106781186546,0.));
#1354=DIRECTION('center_axis',(-1.,5.88361808126898E-16,0.));
#1355=DIRECTION('ref_axis',(3.92523114670943E-16,0.707106781186549,-0.707106781186546));
#1356=DIRECTION('',(-1.,5.88361808126898E-16,0.));
#1357=DIRECTION('center_axis',(1.,0.,0.));
#1358=DIRECTION('ref_axis',(0.,0.,-1.));
#1359=DIRECTION('',(1.,-5.88361808126898E-16,0.));
#1360=DIRECTION('center_axis',(0.,0.,1.));
#1361=DIRECTION('ref_axis',(-0.707106913252135,0.707106649120936,0.));
#1362=DIRECTION('center_axis',(-7.4707556363407E-7,0.999999999999721,0.));
#1363=DIRECTION('ref_axis',(0.,0.,-1.));
#1364=DIRECTION('center_axis',(0.,0.,-1.));
#1365=DIRECTION('ref_axis',(-0.707106957273969,0.707106605099082,0.));
#1366=DIRECTION('center_axis',(0.,0.,1.));
#1367=DIRECTION('ref_axis',(-0.707106957273969,0.707106605099082,0.));
#1368=DIRECTION('center_axis',(4.28648280943326E-8,-0.999999999999999,0.));
#1369=DIRECTION('ref_axis',(-0.707106781186549,-3.03100100180916E-8,-0.707106781186545));
#1370=DIRECTION('center_axis',(-4.2864851668156E-8,0.999999999999999,0.));
#1371=DIRECTION('ref_axis',(-0.707106781186549,-3.03100100180916E-8,-0.707106781186545));
#1372=DIRECTION('',(-4.28648280943326E-8,0.999999999999999,0.));
#1373=DIRECTION('',(4.28648280943326E-8,-0.999999999999999,0.));
#1374=DIRECTION('center_axis',(1.13191965821553E-11,1.,0.));
#1375=DIRECTION('ref_axis',(-0.70710678118655,8.00388066082455E-12,-0.707106781186545));
#1376=DIRECTION('center_axis',(0.,0.,-1.));
#1377=DIRECTION('ref_axis',(1.,0.,0.));
#1378=DIRECTION('',(1.,-5.58943709422086E-15,0.));
#1379=DIRECTION('center_axis',(0.,0.,-1.));
#1380=DIRECTION('ref_axis',(-0.99999999999945,-1.04888027247571E-6,0.));
#1381=DIRECTION('',(-4.28648281280203E-8,0.999999999999999,0.));
#1382=DIRECTION('',(-4.53483573841556E-8,0.999999999999999,0.));
#1383=DIRECTION('',(1.,-1.12911060313964E-11,0.));
#1384=DIRECTION('',(-1.13193405266227E-11,-1.,0.));
#1385=DIRECTION('center_axis',(0.,0.,-1.));
#1386=DIRECTION('ref_axis',(0.707118247186719,0.707095315000447,0.));
#1387=DIRECTION('',(0.707106781109957,-0.707106781263138,0.));
#1388=DIRECTION('center_axis',(0.,0.,-1.));
#1389=DIRECTION('ref_axis',(-1.04673714380709E-5,0.999999999945217,0.));
#1390=DIRECTION('',(1.,1.27550388458894E-11,0.));
#1391=DIRECTION('',(0.707106781186595,-0.7071067811865,0.));
#1392=DIRECTION('center_axis',(0.,0.,-1.));
#1393=DIRECTION('ref_axis',(-5.24900265121906E-8,0.999999999999999,0.));
#1394=DIRECTION('',(1.,-5.58943709422086E-15,0.));
#1395=DIRECTION('',(0.,1.,0.));
#1396=DIRECTION('center_axis',(-5.58943709422086E-15,-1.,0.));
#1397=DIRECTION('ref_axis',(-1.,5.58943709422086E-15,0.));
#1398=DIRECTION('',(0.,0.,1.));
#1399=DIRECTION('center_axis',(-5.58943709422086E-15,-1.,0.));
#1400=DIRECTION('ref_axis',(-0.707106781186548,0.,0.707106781186547));
#1401=DIRECTION('',(1.,-5.58943709422086E-15,0.));
#1402=DIRECTION('center_axis',(-5.58943709422086E-15,-1.,0.));
#1403=DIRECTION('ref_axis',(0.707106781186547,0.,0.707106781186548));
#1404=DIRECTION('',(0.,0.,-1.));
#1405=DIRECTION('center_axis',(5.58943709422086E-15,1.,0.));
#1406=DIRECTION('ref_axis',(-0.707106781186548,0.,-0.707106781186548));
#1407=DIRECTION('',(0.,0.,-1.));
#1408=DIRECTION('',(1.,-5.58943709422086E-15,0.));
#1409=DIRECTION('',(0.,0.,-1.));
#1410=DIRECTION('center_axis',(-1.,0.,0.));
#1411=DIRECTION('ref_axis',(0.,0.,-1.));
#1412=DIRECTION('',(0.,0.,-1.));
#1413=DIRECTION('',(0.,1.,0.));
#1414=DIRECTION('center_axis',(5.88361808126898E-16,1.,0.));
#1415=DIRECTION('ref_axis',(-1.,5.88361808126898E-16,0.));
#1416=DIRECTION('',(0.,0.,-1.));
#1417=DIRECTION('',(-1.,5.88361808126898E-16,0.));
#1418=DIRECTION('',(0.,0.,-1.));
#1419=DIRECTION('',(1.,-5.88361808126898E-16,0.));
#1420=DIRECTION('',(0.,0.,1.));
#1421=DIRECTION('center_axis',(5.88361808126898E-16,1.,0.));
#1422=DIRECTION('ref_axis',(0.707106781186547,0.,0.707106781186548));
#1423=DIRECTION('',(-1.,5.88361808126898E-16,0.));
#1424=DIRECTION('center_axis',(5.88361808126898E-16,1.,0.));
#1425=DIRECTION('ref_axis',(-0.707106781186548,0.,0.707106781186547));
#1426=DIRECTION('center_axis',(0.,0.,1.));
#1427=DIRECTION('ref_axis',(-0.999999999999721,-7.47075563897209E-7,0.));
#1428=DIRECTION('',(0.,0.,-1.));
#1429=DIRECTION('center_axis',(0.,0.,1.));
#1430=DIRECTION('ref_axis',(-0.707106957273969,0.707106605099082,0.));
#1431=DIRECTION('center_axis',(-0.999999999999999,-4.28648280943326E-8,
0.));
#1432=DIRECTION('ref_axis',(4.28648280943326E-8,-0.999999999999999,0.));
#1433=DIRECTION('',(0.,0.,-1.));
#1434=DIRECTION('',(4.28648280943326E-8,-0.999999999999999,0.));
#1435=DIRECTION('center_axis',(4.2864851668156E-8,-0.999999999999999,0.));
#1436=DIRECTION('ref_axis',(0.999999999999999,4.2864851668156E-8,0.));
#1437=DIRECTION('',(0.,0.,-1.));
#1438=DIRECTION('',(0.,0.,-1.));
#1439=DIRECTION('',(-0.999999999999999,-4.2864851668156E-8,0.));
#1440=DIRECTION('',(0.,0.,1.));
#1441=DIRECTION('center_axis',(-4.2864851668156E-8,0.999999999999999,0.));
#1442=DIRECTION('ref_axis',(-0.707106781186549,-3.03100100180916E-8,0.707106781186545));
#1443=DIRECTION('center_axis',(-0.707106781186601,0.707106781186494,0.));
#1444=DIRECTION('ref_axis',(0.499999999999962,0.500000000000039,-0.707106781186547));
#1445=DIRECTION('',(-0.707106781186601,0.707106781186494,0.));
#1446=DIRECTION('center_axis',(0.707106781186601,-0.707106781186494,0.));
#1447=DIRECTION('ref_axis',(0.,0.,-1.));
#1448=DIRECTION('',(0.707106781186601,-0.707106781186494,0.));
#1449=DIRECTION('center_axis',(-0.923879532513743,0.38268343235916,-3.84642123366256E-16));
#1450=DIRECTION('ref_axis',(-0.38268343235916,-0.923879532513743,-9.28608230874142E-16));
#1451=DIRECTION('center_axis',(0.,0.,1.));
#1452=DIRECTION('ref_axis',(1.,0.,0.));
#1453=DIRECTION('center_axis',(0.999999999999999,3.67430175174376E-8,0.));
#1454=DIRECTION('ref_axis',(0.,0.,-1.));
#1455=DIRECTION('center_axis',(0.,0.,-1.));
#1456=DIRECTION('ref_axis',(0.38268338300492,0.923879552956937,0.));
#1457=DIRECTION('center_axis',(0.,0.,1.));
#1458=DIRECTION('ref_axis',(0.38268338300492,0.923879552956937,0.));
#1459=DIRECTION('center_axis',(-1.,5.88361808126898E-16,0.));
#1460=DIRECTION('ref_axis',(3.92523114670943E-16,0.707106781186549,-0.707106781186546));
#1461=DIRECTION('',(-1.,5.88361808126898E-16,0.));
#1462=DIRECTION('center_axis',(0.707106781186548,0.707106781186547,0.));
#1463=DIRECTION('ref_axis',(0.707106781186547,-0.707106781186548,0.));
#1464=DIRECTION('center_axis',(1.13196641567144E-11,1.,0.));
#1465=DIRECTION('ref_axis',(0.707106781186546,-8.0043313543699E-12,-0.707106781186549));
#1466=DIRECTION('center_axis',(1.13191965821553E-11,1.,0.));
#1467=DIRECTION('ref_axis',(0.707106781186546,-8.0043313543699E-12,-0.707106781186549));
#1468=DIRECTION('',(1.13196641567144E-11,1.,0.));
#1469=DIRECTION('center_axis',(-1.13198339590781E-11,-1.,0.));
#1470=DIRECTION('ref_axis',(0.,0.,-1.));
#1471=DIRECTION('',(-1.13196641567144E-11,-1.,0.));
#1472=DIRECTION('center_axis',(0.,0.,1.));
#1473=DIRECTION('ref_axis',(1.,0.,0.));
#1474=DIRECTION('center_axis',(0.707097338403262,-0.707116223843735,0.));
#1475=DIRECTION('ref_axis',(0.,0.,-1.));
#1476=DIRECTION('center_axis',(0.,0.,-1.));
#1477=DIRECTION('ref_axis',(0.923880666876614,0.382680693753453,0.));
#1478=DIRECTION('center_axis',(0.,0.,1.));
#1479=DIRECTION('ref_axis',(0.923880666876614,0.382680693753453,0.));
#1480=DIRECTION('center_axis',(-0.707106781109439,0.707106781263657,0.));
#1481=DIRECTION('ref_axis',(0.500000000054526,0.499999999945473,-0.707106781186548));
#1482=DIRECTION('center_axis',(0.707106781109438,-0.707106781263657,0.));
#1483=DIRECTION('ref_axis',(0.,0.,-1.));
#1484=DIRECTION('',(0.707106781109439,-0.707106781263657,0.));
#1485=DIRECTION('',(-0.707106781109439,0.707106781263657,0.));
#1486=DIRECTION('center_axis',(0.,0.,1.));
#1487=DIRECTION('ref_axis',(1.,0.,0.));
#1488=DIRECTION('center_axis',(0.999999999961652,8.75764971652873E-6,0.));
#1489=DIRECTION('ref_axis',(0.,0.,-1.));
#1490=DIRECTION('center_axis',(0.,0.,-1.));
#1491=DIRECTION('ref_axis',(0.382682381888101,0.923879967632403,0.));
#1492=DIRECTION('center_axis',(0.,0.,1.));
#1493=DIRECTION('ref_axis',(0.382682381888101,0.923879967632403,0.));
#1494=DIRECTION('center_axis',(-1.,-1.27549686032561E-11,0.));
#1495=DIRECTION('ref_axis',(-9.0201811751383E-12,0.707106781186546,-0.707106781186549));
#1496=DIRECTION('',(1.,1.27549686032561E-11,0.));
#1497=DIRECTION('',(-1.,-1.27549686032561E-11,0.));
#1498=DIRECTION('center_axis',(0.,-1.,0.));
#1499=DIRECTION('ref_axis',(-0.707106781186548,0.,-0.707106781186548));
#1500=DIRECTION('',(0.,-1.,0.));
#1501=DIRECTION('',(0.,1.,0.));
#1502=DIRECTION('center_axis',(0.707106781263657,0.707106781109439,0.));
#1503=DIRECTION('ref_axis',(-0.707106781109439,0.707106781263657,0.));
#1504=DIRECTION('',(0.,0.,-1.));
#1505=DIRECTION('',(-0.707106781109439,0.707106781263657,0.));
#1506=DIRECTION('',(0.,0.,-1.));
#1507=DIRECTION('center_axis',(0.,0.,1.));
#1508=DIRECTION('ref_axis',(-8.75764971556222E-6,0.999999999961652,0.));
#1509=DIRECTION('',(0.,0.,-1.));
#1510=DIRECTION('center_axis',(0.,0.,1.));
#1511=DIRECTION('ref_axis',(0.382682381888101,0.923879967632403,0.));
#1512=DIRECTION('center_axis',(-1.27549686032561E-11,1.,0.));
#1513=DIRECTION('ref_axis',(-1.,-1.27549686032561E-11,0.));
#1514=DIRECTION('',(0.,0.,-1.));
#1515=DIRECTION('',(-1.,-1.27549686032561E-11,0.));
#1516=DIRECTION('center_axis',(0.707106781186494,0.707106781186601,0.));
#1517=DIRECTION('ref_axis',(-0.707106781186601,0.707106781186494,0.));
#1518=DIRECTION('',(0.,0.,-1.));
#1519=DIRECTION('',(-0.707106781186601,0.707106781186494,0.));
#1520=DIRECTION('center_axis',(0.,0.,1.));
#1521=DIRECTION('ref_axis',(-3.67430173025151E-8,0.999999999999999,0.));
#1522=DIRECTION('center_axis',(0.,0.,1.));
#1523=DIRECTION('ref_axis',(0.38268338300492,0.923879552956937,0.));
#1524=DIRECTION('center_axis',(1.,0.,0.));
#1525=DIRECTION('ref_axis',(0.,0.,1.));
#1526=DIRECTION('',(0.,-1.,0.));
#1527=DIRECTION('center_axis',(-0.707106781186601,0.707106781186494,0.));
#1528=DIRECTION('ref_axis',(0.499999999999962,0.50000000000004,0.707106781186546));
#1529=DIRECTION('center_axis',(0.707106781186601,-0.707106781186495,0.));
#1530=DIRECTION('ref_axis',(0.707106781186495,0.707106781186601,0.));
#1531=DIRECTION('center_axis',(-0.923879532513743,0.38268343235916,-5.12856164488342E-16));
#1532=DIRECTION('ref_axis',(-0.38268343235916,-0.923879532513743,-1.23814430783219E-15));
#1533=DIRECTION('center_axis',(1.13196641567144E-11,1.,0.));
#1534=DIRECTION('ref_axis',(0.707106781186547,-8.00433135436991E-12,0.707106781186548));
#1535=DIRECTION('center_axis',(1.13191965821553E-11,1.,0.));
#1536=DIRECTION('ref_axis',(0.707106781186547,-8.00433135436991E-12,0.707106781186548));
#1537=DIRECTION('',(1.13196641567144E-11,1.,0.));
#1538=DIRECTION('center_axis',(-1.13198339590781E-11,-1.,0.));
#1539=DIRECTION('ref_axis',(1.,-1.13198339590781E-11,0.));
#1540=DIRECTION('center_axis',(0.,0.,1.));
#1541=DIRECTION('ref_axis',(1.,0.,0.));
#1542=DIRECTION('center_axis',(0.707097338403262,-0.707116223843735,0.));
#1543=DIRECTION('ref_axis',(0.707116223843735,0.707097338403262,0.));
#1544=DIRECTION('center_axis',(0.,0.,1.));
#1545=DIRECTION('ref_axis',(0.923880666876614,0.382680693753453,0.));
#1546=DIRECTION('center_axis',(-0.707106781109439,0.707106781263657,0.));
#1547=DIRECTION('ref_axis',(0.500000000054526,0.499999999945474,0.707106781186548));
#1548=DIRECTION('center_axis',(0.707106781109438,-0.707106781263657,0.));
#1549=DIRECTION('ref_axis',(0.707106781263657,0.707106781109438,0.));
#1550=DIRECTION('center_axis',(0.,0.,1.));
#1551=DIRECTION('ref_axis',(1.,0.,0.));
#1552=DIRECTION('center_axis',(0.999999999961652,8.75764971652873E-6,0.));
#1553=DIRECTION('ref_axis',(-8.75764971652873E-6,0.999999999961652,0.));
#1554=DIRECTION('center_axis',(-1.,-1.27549686032561E-11,0.));
#1555=DIRECTION('ref_axis',(-9.02018117513831E-12,0.707106781186547,0.707106781186548));
#1556=DIRECTION('center_axis',(0.,0.,1.));
#1557=DIRECTION('ref_axis',(1.,0.,0.));
#1558=DIRECTION('center_axis',(0.999999999999999,3.67430175174376E-8,0.));
#1559=DIRECTION('ref_axis',(-3.67430175174376E-8,0.999999999999999,0.));
#1560=DIRECTION('center_axis',(-1.,5.88361808126898E-16,0.));
#1561=DIRECTION('ref_axis',(3.92523114670943E-16,0.70710678118655,0.707106781186545));
#1562=DIRECTION('center_axis',(1.,0.,0.));
#1563=DIRECTION('ref_axis',(0.,1.,0.));
#1564=DIRECTION('center_axis',(0.,0.,1.));
#1565=DIRECTION('ref_axis',(-0.707106913252135,0.707106649120936,0.));
#1566=DIRECTION('center_axis',(-7.4707556363407E-7,0.999999999999721,0.));
#1567=DIRECTION('ref_axis',(-0.999999999999721,-7.4707556363407E-7,0.));
#1568=DIRECTION('center_axis',(4.28648280943326E-8,-0.999999999999999,0.));
#1569=DIRECTION('ref_axis',(-0.707106781186549,-3.03100100180916E-8,0.707106781186545));
#1570=DIRECTION('center_axis',(0.,0.,1.));
#1571=DIRECTION('ref_axis',(0.707116223843735,0.707097338403261,0.));
#1572=DIRECTION('',(0.,0.,1.));
#1573=DIRECTION('center_axis',(1.,-1.13196641567144E-11,0.));
#1574=DIRECTION('ref_axis',(1.13196641567144E-11,1.,0.));
#1575=DIRECTION('',(0.,0.,-1.));
#1576=DIRECTION('center_axis',(-1.,0.,0.));
#1577=DIRECTION('ref_axis',(0.,-1.,0.));
#1578=DIRECTION('',(0.,0.,1.));
#1579=DIRECTION('',(0.,1.,0.));
#1580=DIRECTION('center_axis',(0.,-1.,0.));
#1581=DIRECTION('ref_axis',(1.,0.,0.));
#1582=DIRECTION('',(-1.,0.,0.));
#1583=DIRECTION('center_axis',(0.,0.,-1.));
#1584=DIRECTION('ref_axis',(1.,0.,0.));
#1585=DIRECTION('',(1.,-1.13191965821553E-11,0.));
#1586=DIRECTION('center_axis',(-0.707106781263138,-0.707106781109957,0.));
#1587=DIRECTION('ref_axis',(-0.707106781109957,0.707106781263138,0.));
#1588=DIRECTION('',(0.,0.,-1.));
#1589=DIRECTION('',(0.707106781109957,-0.707106781263138,0.));
#1590=DIRECTION('',(0.,0.,-1.));
#1591=DIRECTION('center_axis',(0.,0.,-1.));
#1592=DIRECTION('ref_axis',(0.707118247186719,0.707095315000447,0.));
#1593=DIRECTION('',(0.,0.,-1.));
#1594=DIRECTION('center_axis',(0.,0.,-1.));
#1595=DIRECTION('ref_axis',(0.707118247186719,0.707095315000447,0.));
#1596=DIRECTION('center_axis',(-1.,1.13193405266227E-11,0.));
#1597=DIRECTION('ref_axis',(1.13193405266227E-11,1.,0.));
#1598=DIRECTION('',(0.,0.,-1.));
#1599=DIRECTION('',(-1.13193405266227E-11,-1.,0.));
#1600=DIRECTION('center_axis',(0.999999999999999,4.53483573841556E-8,0.));
#1601=DIRECTION('ref_axis',(4.53483573841556E-8,-0.999999999999999,0.));
#1602=DIRECTION('',(0.,0.,-1.));
#1603=DIRECTION('',(-4.53483573841556E-8,0.999999999999999,0.));
#1604=DIRECTION('center_axis',(0.999999999999999,4.28648281280203E-8,0.));
#1605=DIRECTION('ref_axis',(4.28648281280203E-8,-0.999999999999999,0.));
#1606=DIRECTION('',(0.,0.,-1.));
#1607=DIRECTION('',(-4.28648281280203E-8,0.999999999999999,0.));
#1608=DIRECTION('center_axis',(0.,0.,-1.));
#1609=DIRECTION('ref_axis',(-0.99999999999945,-1.04888027247571E-6,0.));
#1610=DIRECTION('center_axis',(0.,0.,-1.));
#1611=DIRECTION('ref_axis',(-0.99999999999945,-1.04888027247571E-6,0.));
#1612=DIRECTION('center_axis',(0.,-1.,0.));
#1613=DIRECTION('ref_axis',(0.707106781186547,0.,0.707106781186548));
#1614=DIRECTION('',(0.,1.,0.));
#1615=DIRECTION('center_axis',(0.,-1.,0.));
#1616=DIRECTION('ref_axis',(-0.707106781186548,0.,0.707106781186547));
#1617=DIRECTION('',(0.,-1.,0.));
#1618=DIRECTION('center_axis',(0.,0.,1.));
#1619=DIRECTION('ref_axis',(-1.,0.,0.));
#1620=DIRECTION('center_axis',(0.,0.,-1.));
#1621=DIRECTION('ref_axis',(-5.24900265121906E-8,0.999999999999999,0.));
#1622=DIRECTION('',(0.,0.,-1.));
#1623=DIRECTION('center_axis',(0.,0.,-1.));
#1624=DIRECTION('ref_axis',(-5.24900265121906E-8,0.999999999999999,0.));
#1625=DIRECTION('center_axis',(-0.7071067811865,-0.707106781186595,0.));
#1626=DIRECTION('ref_axis',(-0.707106781186595,0.7071067811865,0.));
#1627=DIRECTION('',(0.,0.,-1.));
#1628=DIRECTION('',(0.707106781186595,-0.7071067811865,0.));
#1629=DIRECTION('center_axis',(1.27550388458894E-11,-1.,0.));
#1630=DIRECTION('ref_axis',(-1.,-1.27550388458894E-11,0.));
#1631=DIRECTION('',(0.,0.,-1.));
#1632=DIRECTION('',(1.,1.27550388458894E-11,0.));
#1633=DIRECTION('center_axis',(0.,0.,-1.));
#1634=DIRECTION('ref_axis',(-1.04673714380709E-5,0.999999999945217,0.));
#1635=DIRECTION('center_axis',(0.,0.,-1.));
#1636=DIRECTION('ref_axis',(-1.04673714380709E-5,0.999999999945217,0.));
#1637=DIRECTION('center_axis',(-1.13191965821553E-11,-1.,0.));
#1638=DIRECTION('ref_axis',(1.,-1.13191965821553E-11,0.));
#1639=DIRECTION('',(-1.,1.13191965821553E-11,0.));
#1640=DIRECTION('center_axis',(0.,0.,-1.));
#1641=DIRECTION('ref_axis',(1.,0.,0.));
#1642=CARTESIAN_POINT('',(0.,0.,0.));
#1643=CARTESIAN_POINT('Origin',(12.1499997285057,23.0499994400889,9.51));
#1644=CARTESIAN_POINT('',(-0.300000037997961,23.0499994400889,11.51));
#1645=CARTESIAN_POINT('',(26.2999994568527,23.0499994400889,11.51));
#1646=CARTESIAN_POINT('',(12.1499997285057,23.0499994400889,11.51));
#1647=CARTESIAN_POINT('',(24.2999994568527,25.0499994400889,9.51));
#1648=CARTESIAN_POINT('Origin',(26.2999994568527,23.0499994400889,9.51));
#1649=CARTESIAN_POINT('',(1.69999996200204,25.0499994400889,9.51));
#1650=CARTESIAN_POINT('',(12.1499997285057,25.0499994400889,9.51));
#1651=CARTESIAN_POINT('Origin',(-0.300000037997961,23.0499994400889,9.51));
#1652=CARTESIAN_POINT('Origin',(26.2999994568527,31.6774995270625,9.51));
#1653=CARTESIAN_POINT('',(26.2999994568527,32.8999993093312,11.51));
#1654=CARTESIAN_POINT('',(26.2999994568527,31.6774995270625,11.51));
#1655=CARTESIAN_POINT('',(24.2999994568527,30.8999993093312,9.51));
#1656=CARTESIAN_POINT('Origin',(26.2999994568527,32.8999993093312,9.51));
#1657=CARTESIAN_POINT('',(24.2999994568527,31.6774995270625,9.51));
#1658=CARTESIAN_POINT('Origin',(0.849999981080356,32.8999993093312,9.51));
#1659=CARTESIAN_POINT('',(-0.300000037997961,32.8999993093312,11.51));
#1660=CARTESIAN_POINT('',(0.849999981080356,32.8999993093312,11.51));
#1661=CARTESIAN_POINT('',(1.69999996200204,30.8999993093312,9.51));
#1662=CARTESIAN_POINT('Origin',(-0.300000037997961,32.8999993093312,9.51));
#1663=CARTESIAN_POINT('',(0.849999981080356,30.8999993093312,9.51));
#1664=CARTESIAN_POINT('Origin',(-0.300000037997961,28.7524995924413,9.51));
#1665=CARTESIAN_POINT('',(1.69999996200204,28.7524995924413,9.51));
#1666=CARTESIAN_POINT('',(-0.300000037997961,28.7524995924413,11.51));
#1667=CARTESIAN_POINT('Origin',(1.69999996200204,25.0499994400889,8.51));
#1668=CARTESIAN_POINT('',(1.69999996200204,25.0499994400889,8.51));
#1669=CARTESIAN_POINT('',(1.69999996200204,25.0499994400889,8.51));
#1670=CARTESIAN_POINT('',(1.69999996200204,30.8999993093312,8.51));
#1671=CARTESIAN_POINT('',(1.69999996200204,30.8999993093312,8.51));
#1672=CARTESIAN_POINT('',(1.69999996200204,30.8999993093312,8.51));
#1673=CARTESIAN_POINT('Origin',(24.2999994568527,25.0499994400889,8.51));
#1674=CARTESIAN_POINT('',(24.2999994568527,25.0499994400889,8.51));
#1675=CARTESIAN_POINT('',(24.2999994568527,25.0499994400889,10.51));
#1676=CARTESIAN_POINT('',(1.69999996200204,25.0499994400889,8.51));
#1677=CARTESIAN_POINT('Origin',(1.58673074679427E-10,32.4549997447937,11.51));
#1678=CARTESIAN_POINT('',(-40.0999991036951,18.9999995753169,11.51));
#1679=CARTESIAN_POINT('',(-40.0999999999992,39.9099985058489,11.51));
#1680=CARTESIAN_POINT('',(-40.09999984022,36.1824975616708,11.51));
#1681=CARTESIAN_POINT('',(40.1000000001539,18.9999995744091,11.51));
#1682=CARTESIAN_POINT('',(-20.0499995518444,18.99999957509,11.51));
#1683=CARTESIAN_POINT('',(40.1000000003176,33.4615738992825,11.51));
#1684=CARTESIAN_POINT('',(40.1000000002301,25.7274996593745,11.51));
#1685=CARTESIAN_POINT('',(38.9284341164284,36.2899930084588,11.51));
#1686=CARTESIAN_POINT('Origin',(36.0998949095651,33.461529345342,11.51));
#1687=CARTESIAN_POINT('',(35.0199910090036,40.1984361164838,11.51));
#1688=CARTESIAN_POINT('',(30.1550833479168,45.0633437786316,11.51));
#1689=CARTESIAN_POINT('',(32.1915894619675,41.3700000005094,11.51));
#1690=CARTESIAN_POINT('Origin',(32.191624491475,37.370124612624,11.51));
#1691=CARTESIAN_POINT('',(-1.71157287525354,41.3700000000002,11.51));
#1692=CARTESIAN_POINT('',(16.0957859733692,41.3700000002274,11.51));
#1693=CARTESIAN_POINT('',(-3.08000043762687,42.7384275623734,11.51));
#1694=CARTESIAN_POINT('',(0.652177188582475,39.0062499361646,11.51));
#1695=CARTESIAN_POINT('',(-5.90842707348602,43.91,11.51));
#1696=CARTESIAN_POINT('Origin',(-5.90842692651397,39.9100004785741,11.51));
#1697=CARTESIAN_POINT('',(-36.1,43.91,11.51));
#1698=CARTESIAN_POINT('',(-2.95421357340669,43.91,11.51));
#1699=CARTESIAN_POINT('Origin',(-36.10000149415,39.91000149415,11.51));
#1700=CARTESIAN_POINT('Origin',(-9.35862437659751,38.9125015644562,-5.49));
#1701=CARTESIAN_POINT('',(-8.,38.9125015644562,-7.49));
#1702=CARTESIAN_POINT('',(-9.99749843554382,40.91,-5.59));
#1703=CARTESIAN_POINT('Origin',(-8.,38.9125015644562,-5.49));
#1704=CARTESIAN_POINT('',(-29.434497506712,38.9125015644562,-7.49));
#1705=CARTESIAN_POINT('',(-9.35862437659751,38.9125015644562,-7.49));
#1706=CARTESIAN_POINT('',(-27.4369990711682,40.91,-5.59));
#1707=CARTESIAN_POINT('Origin',(-29.434497506712,38.9125015644562,-5.49));
#1708=CARTESIAN_POINT('',(-9.35862437659751,40.91,-5.59));
#1709=CARTESIAN_POINT('Origin',(-29.434497506712,39.1824998723969,-5.49));
#1710=CARTESIAN_POINT('',(-27.434497506712,45.91,-5.49));
#1711=CARTESIAN_POINT('',(-27.434497506712,44.1100000000001,-5.49));
#1712=CARTESIAN_POINT('',(-27.434497506712,39.1824998723969,-5.49));
#1713=CARTESIAN_POINT('',(-27.4369990711682,44.1100000000001,-5.59));
#1714=CARTESIAN_POINT('Origin',(-29.434497506712,44.11,-5.49));
#1715=CARTESIAN_POINT('',(-27.4369990711682,39.1824998723969,-5.59));
#1716=CARTESIAN_POINT('',(-29.434497506712,43.91,-7.49));
#1717=CARTESIAN_POINT('',(-29.434497506712,39.1824998723969,-7.49));
#1718=CARTESIAN_POINT('Origin',(-29.434497506712,43.91,-5.49));
#1719=CARTESIAN_POINT('Origin',(-2.95421357340669,43.91,-5.49));
#1720=CARTESIAN_POINT('',(-36.1,43.91,-7.49));
#1721=CARTESIAN_POINT('',(-2.95421357340669,43.91,-7.49));
#1722=CARTESIAN_POINT('',(-36.1,45.91,-5.49));
#1723=CARTESIAN_POINT('Origin',(-36.1,43.91,-5.49));
#1724=CARTESIAN_POINT('',(-2.95421357340669,45.91,-5.49));
#1725=CARTESIAN_POINT('Origin',(-36.10000149415,39.91000149415,-5.49));
#1726=CARTESIAN_POINT('',(-40.0999999999992,39.9099985058489,-7.49));
#1727=CARTESIAN_POINT('',(-42.0999999999986,39.9099970116977,-5.49));
#1728=CARTESIAN_POINT('Origin',(-40.0999999999992,39.9099985058489,-5.49));
#1729=CARTESIAN_POINT('Origin',(-36.10000149415,39.91000149415,-5.49));
#1730=CARTESIAN_POINT('Origin',(-36.10000149415,39.91000149415,-7.49));
#1731=CARTESIAN_POINT('Origin',(-40.09999984022,36.1824975616708,-5.49));
#1732=CARTESIAN_POINT('',(-40.2999990992248,18.9999995753169,-7.47997487466253));
#1733=CARTESIAN_POINT('',(-42.0999991036952,18.9999994895872,-5.49));
#1734=CARTESIAN_POINT('Origin',(-40.0999991036952,18.9999995753169,-5.49));
#1735=CARTESIAN_POINT('',(-42.09999984022,36.1824974759411,-5.49));
#1736=CARTESIAN_POINT('',(-40.0999991036952,18.9999995753169,-7.49));
#1737=CARTESIAN_POINT('',(-40.09999984022,36.1824975616708,-7.49));
#1738=CARTESIAN_POINT('Origin',(-40.0999991036952,18.9999995753169,-5.49));
#1739=CARTESIAN_POINT('Origin',(1.60982338570648E-10,31.5549997872039,-5.59));
#1740=CARTESIAN_POINT('',(-36.1000004482451,44.1100000000008,-5.59));
#1741=CARTESIAN_POINT('',(-2.9542135734055,44.11,-5.59));
#1742=CARTESIAN_POINT('',(-40.2999999999986,39.9099970888544,-5.59));
#1743=CARTESIAN_POINT('Origin',(-36.10000149415,39.91000149415,-5.59));
#1744=CARTESIAN_POINT('',(-40.2999991808518,20.7999995667439,-5.59));
#1745=CARTESIAN_POINT('',(-40.2999998209308,35.7324975743029,-5.59));
#1746=CARTESIAN_POINT('',(-40.2999990992248,18.9999995753169,-5.59));
#1747=CARTESIAN_POINT('',(-40.2999994247126,26.1774987632045,-5.59));
#1748=CARTESIAN_POINT('',(40.3000000001539,18.9999995744068,-5.59));
#1749=CARTESIAN_POINT('',(-40.2999990992248,18.9999995753169,-5.59));
#1750=CARTESIAN_POINT('',(40.3000000003229,33.4615672162994,-5.59));
#1751=CARTESIAN_POINT('',(40.300000000225,25.2774996805773,-5.59));
#1752=CARTESIAN_POINT('',(39.0698658594625,36.4314039776471,-5.59));
#1753=CARTESIAN_POINT('Origin',(36.0998949095651,33.461529345342,-5.59));
#1754=CARTESIAN_POINT('',(35.1614082391889,40.3398615987674,-5.59));
#1755=CARTESIAN_POINT('',(30.5215004443638,44.9797693945976,-5.59));
#1756=CARTESIAN_POINT('',(32.1915805298193,41.5700000004327,-5.59));
#1757=CARTESIAN_POINT('Origin',(32.191624491475,37.370124612624,-5.59));
#1758=CARTESIAN_POINT('',(-1.62873016277999,41.5700000000013,-5.59));
#1759=CARTESIAN_POINT('',(16.0957902649263,41.5700000002274,-5.59));
#1760=CARTESIAN_POINT('',(-2.93857899215278,42.8798488293739,-5.59));
#1761=CARTESIAN_POINT('',(1.28220243115466,38.659067406067,-5.59));
#1762=CARTESIAN_POINT('',(-5.90842714697206,44.11,-5.59));
#1763=CARTESIAN_POINT('Origin',(-5.90842692651397,39.9100004785741,-5.59));
#1764=CARTESIAN_POINT('',(-9.99749843554382,44.11,-5.59));
#1765=CARTESIAN_POINT('',(-2.9542135734055,44.11,-5.59));
#1766=CARTESIAN_POINT('',(-9.99749843554382,39.1824998723969,-5.59));
#1767=CARTESIAN_POINT('Origin',(-5.90842714697205,44.11,8.51));
#1768=CARTESIAN_POINT('',(-27.434497506712,44.1100000000001,5.5));
#1769=CARTESIAN_POINT('',(-27.434497506712,44.1100000000001,8.005));
#1770=CARTESIAN_POINT('',(-25.434497506712,44.1100000000001,7.5));
#1771=CARTESIAN_POINT('Origin',(-25.434497506712,44.11,5.5));
#1772=CARTESIAN_POINT('',(-12.,44.11,7.5));
#1773=CARTESIAN_POINT('',(-7.95421357348603,44.11,7.5));
#1774=CARTESIAN_POINT('',(-10.,44.11,5.5));
#1775=CARTESIAN_POINT('Origin',(-12.,44.11,5.5));
#1776=CARTESIAN_POINT('',(-10.,44.11,-5.49));
#1777=CARTESIAN_POINT('',(-10.,44.11,0.00999999999999945));
#1778=CARTESIAN_POINT('Origin',(-8.,44.11,-5.49));
#1779=CARTESIAN_POINT('',(-5.90842714697205,44.11,8.51));
#1780=CARTESIAN_POINT('',(-5.90842714697205,44.11,8.51));
#1781=CARTESIAN_POINT('',(-36.1000004482451,44.1100000000001,8.51));
#1782=CARTESIAN_POINT('',(-2.95421357340666,44.11,8.51));
#1783=CARTESIAN_POINT('',(-36.1000004482451,44.1100000000001,8.51));
#1784=CARTESIAN_POINT('Origin',(-27.434497506712,45.91,7.5));
#1785=CARTESIAN_POINT('',(-27.434497506712,45.91,5.5));
#1786=CARTESIAN_POINT('',(-27.434497506712,45.91,8.005));
#1787=CARTESIAN_POINT('',(-27.434497506712,45.91,5.5));
#1788=CARTESIAN_POINT('Origin',(-5.90842714697205,45.91,8.51));
#1789=CARTESIAN_POINT('',(-36.1,45.91,9.51));
#1790=CARTESIAN_POINT('',(-36.1,45.91,8.51));
#1791=CARTESIAN_POINT('',(-5.90842714697205,45.91,9.51));
#1792=CARTESIAN_POINT('',(-2.95421357340669,45.91,9.51));
#1793=CARTESIAN_POINT('',(-5.90842714697205,45.91,-5.49));
#1794=CARTESIAN_POINT('',(-5.90842714697205,45.91,8.51));
#1795=CARTESIAN_POINT('',(-10.,45.91,-5.49));
#1796=CARTESIAN_POINT('',(-2.95421357340669,45.91,-5.49));
#1797=CARTESIAN_POINT('',(-10.,45.91,5.5));
#1798=CARTESIAN_POINT('',(-10.,45.91,0.00999999999999945));
#1799=CARTESIAN_POINT('',(-12.,45.91,7.5));
#1800=CARTESIAN_POINT('Origin',(-12.,45.91,5.5));
#1801=CARTESIAN_POINT('',(-25.434497506712,45.91,7.5));
#1802=CARTESIAN_POINT('',(-7.95421357348603,45.91,7.5));
#1803=CARTESIAN_POINT('Origin',(-25.434497506712,45.91,5.5));
#1804=CARTESIAN_POINT('Origin',(-36.10000149415,39.91000149415,8.51));
#1805=CARTESIAN_POINT('',(-42.0999999999986,39.9099970116977,9.51));
#1806=CARTESIAN_POINT('',(-42.0999999999986,39.9099970116977,8.51));
#1807=CARTESIAN_POINT('Origin',(-36.10000149415,39.91000149415,9.51));
#1808=CARTESIAN_POINT('Origin',(-42.0999999999986,39.9099970116977,8.51));
#1809=CARTESIAN_POINT('',(-42.0999991036952,18.9999994895872,9.51));
#1810=CARTESIAN_POINT('',(-42.0999991036952,18.9999994895872,8.51));
#1811=CARTESIAN_POINT('',(-42.09999984022,36.1824974759411,9.51));
#1812=CARTESIAN_POINT('Origin',(-42.0999991036952,18.9999994895872,8.51));
#1813=CARTESIAN_POINT('',(-40.2999990992248,18.9999995753169,8.51));
#1814=CARTESIAN_POINT('',(-40.2999990992248,18.9999995753169,8.51));
#1815=CARTESIAN_POINT('',(-40.2999990992248,18.9999995753169,8.51));
#1816=CARTESIAN_POINT('',(-40.0999991036951,18.9999995753169,8.51));
#1817=CARTESIAN_POINT('',(-40.0999991036951,18.9999995753169,8.51));
#1818=CARTESIAN_POINT('',(-40.0999991036951,18.9999995753169,8.51));
#1819=CARTESIAN_POINT('Origin',(-40.0999991036952,18.9999995753169,9.51));
#1820=CARTESIAN_POINT('Origin',(0.652177188582475,39.0062499361646,-5.49));
#1821=CARTESIAN_POINT('',(-1.71157287525353,41.3700000000002,-7.49));
#1822=CARTESIAN_POINT('',(-3.08000043762687,42.7384275623734,-7.49));
#1823=CARTESIAN_POINT('',(0.652177188582475,39.0062499361646,-7.49));
#1824=CARTESIAN_POINT('',(-1.66578687525388,44.1526411247466,-5.49));
#1825=CARTESIAN_POINT('Origin',(-3.08000043762687,42.7384275623734,-5.49));
#1826=CARTESIAN_POINT('',(-0.883145750518004,43.3700000000108,-5.49));
#1827=CARTESIAN_POINT('',(2.06639075095546,40.4204634985378,-5.49));
#1828=CARTESIAN_POINT('Origin',(-1.71157287525353,41.3700000000002,-5.49));
#1829=CARTESIAN_POINT('Origin',(-5.90842692651397,39.9100004785741,-5.49));
#1830=CARTESIAN_POINT('',(-5.90842707348602,43.91,-7.49));
#1831=CARTESIAN_POINT('Origin',(-5.90842707348602,43.91,-5.49));
#1832=CARTESIAN_POINT('Origin',(-5.90842692651397,39.9100004785741,-5.49));
#1833=CARTESIAN_POINT('Origin',(-5.90842692651397,39.9100004785741,-7.49));
#1834=CARTESIAN_POINT('Origin',(-2.95421357340669,43.91,-5.49));
#1835=CARTESIAN_POINT('',(-8.,43.91,-7.49));
#1836=CARTESIAN_POINT('',(-2.95421357340669,43.91,-7.49));
#1837=CARTESIAN_POINT('Origin',(-8.,43.91,-5.49));
#1838=CARTESIAN_POINT('Origin',(40.1000000002301,25.7274996593745,-5.49));
#1839=CARTESIAN_POINT('',(42.1000000001539,18.9999995743865,-5.49));
#1840=CARTESIAN_POINT('',(40.1000000001539,18.9999995744091,-7.49));
#1841=CARTESIAN_POINT('Origin',(40.1000000001539,18.9999995744091,-5.49));
#1842=CARTESIAN_POINT('',(40.1000000003176,33.4615738992825,-7.49));
#1843=CARTESIAN_POINT('',(40.1000000002301,25.7274996593745,-7.49));
#1844=CARTESIAN_POINT('',(42.1000000003176,33.4615738992599,-5.49));
#1845=CARTESIAN_POINT('Origin',(40.1000000003176,33.4615738992825,-5.49));
#1846=CARTESIAN_POINT('',(42.1000000002301,25.7274996593518,-5.49));
#1847=CARTESIAN_POINT('Origin',(36.0998949095651,33.461529345342,-5.49));
#1848=CARTESIAN_POINT('',(38.9284341164284,36.2899930084588,-7.49));
#1849=CARTESIAN_POINT('',(40.3426665641159,37.7041876852653,-5.49));
#1850=CARTESIAN_POINT('Origin',(38.9284341164284,36.2899930084588,-5.49));
#1851=CARTESIAN_POINT('Origin',(36.0998949095651,33.461529345342,-5.49));
#1852=CARTESIAN_POINT('Origin',(36.0998949095651,33.461529345342,-7.49));
#1853=CARTESIAN_POINT('Origin',(30.1550833479168,45.0633437786316,-5.49));
#1854=CARTESIAN_POINT('',(35.0199910090036,40.1984361164838,-7.49));
#1855=CARTESIAN_POINT('',(36.4342045715309,41.6126496787027,-5.49));
#1856=CARTESIAN_POINT('Origin',(35.0199910090036,40.1984361164838,-5.49));
#1857=CARTESIAN_POINT('',(31.5692969104441,46.4775573408505,-5.49));
#1858=CARTESIAN_POINT('',(30.1550833479168,45.0633437786316,-7.49));
#1859=CARTESIAN_POINT('Origin',(32.191624491475,37.370124612624,-5.49));
#1860=CARTESIAN_POINT('',(32.1915894619675,41.3700000005094,-7.49));
#1861=CARTESIAN_POINT('',(32.191571946668,43.3700000004327,-5.49));
#1862=CARTESIAN_POINT('Origin',(32.1915894619675,41.3700000005094,-5.49));
#1863=CARTESIAN_POINT('Origin',(32.191624491475,37.370124612624,-5.49));
#1864=CARTESIAN_POINT('Origin',(32.191624491475,37.370124612624,-7.49));
#1865=CARTESIAN_POINT('Origin',(16.0957859733692,41.3700000002274,-5.49));
#1866=CARTESIAN_POINT('',(16.0957859733437,43.3700000002274,-5.49));
#1867=CARTESIAN_POINT('',(16.0957859733692,41.3700000002274,-7.49));
#1868=CARTESIAN_POINT('Origin',(-8.,39.1824998723969,-5.49));
#1869=CARTESIAN_POINT('',(-8.,39.1824998723969,-7.49));
#1870=CARTESIAN_POINT('',(-10.,39.1824998723969,-5.49));
#1871=CARTESIAN_POINT('Origin',(40.3426665641159,37.7041876852653,8.51));
#1872=CARTESIAN_POINT('',(36.4342045715309,41.6126496787027,9.51));
#1873=CARTESIAN_POINT('',(36.4342045715309,41.6126496787027,8.51));
#1874=CARTESIAN_POINT('',(40.3426665641159,37.7041876852653,9.51));
#1875=CARTESIAN_POINT('',(31.5692969104441,46.4775573408505,9.51));
#1876=CARTESIAN_POINT('',(40.3426665641159,37.7041876852653,8.51));
#1877=CARTESIAN_POINT('Origin',(32.191624491475,37.370124612624,8.51));
#1878=CARTESIAN_POINT('',(32.191571946668,43.3700000004327,9.51));
#1879=CARTESIAN_POINT('',(32.191571946668,43.3700000004327,8.51));
#1880=CARTESIAN_POINT('Origin',(32.191624491475,37.370124612624,9.51));
#1881=CARTESIAN_POINT('Origin',(32.191571946668,43.3700000004327,8.51));
#1882=CARTESIAN_POINT('',(-0.883145750518004,43.3700000000108,9.51));
#1883=CARTESIAN_POINT('',(-0.883145750518004,43.3700000000108,8.51));
#1884=CARTESIAN_POINT('',(16.0957859733437,43.3700000002274,9.51));
#1885=CARTESIAN_POINT('Origin',(-0.883145750518004,43.3700000000108,8.51));
#1886=CARTESIAN_POINT('',(-1.66578687525388,44.1526411247466,9.51));
#1887=CARTESIAN_POINT('',(-1.66578687525388,44.1526411247466,8.51));
#1888=CARTESIAN_POINT('',(2.06639075095546,40.4204634985378,9.51));
#1889=CARTESIAN_POINT('Origin',(-5.90842692651397,39.9100004785741,8.51));
#1890=CARTESIAN_POINT('Origin',(-5.90842692651397,39.9100004785741,9.51));
#1891=CARTESIAN_POINT('Origin',(-10.,45.91,-8.49));
#1892=CARTESIAN_POINT('',(-10.,45.91,5.5));
#1893=CARTESIAN_POINT('Origin',(0.652177188582475,39.0062499361646,9.51));
#1894=CARTESIAN_POINT('Origin',(-3.08000043762687,42.7384275623734,9.51));
#1895=CARTESIAN_POINT('Origin',(-1.71157287525353,41.3700000000002,9.51));
#1896=CARTESIAN_POINT('Origin',(40.1000000002301,25.7274996593745,9.51));
#1897=CARTESIAN_POINT('',(42.1000000001539,18.9999995743865,9.51));
#1898=CARTESIAN_POINT('Origin',(40.1000000001539,18.9999995744091,9.51));
#1899=CARTESIAN_POINT('',(42.1000000003176,33.4615738992599,9.51));
#1900=CARTESIAN_POINT('',(42.1000000002301,25.7274996593518,9.51));
#1901=CARTESIAN_POINT('Origin',(40.1000000003176,33.4615738992825,9.51));
#1902=CARTESIAN_POINT('Origin',(36.0998949095651,33.461529345342,9.51));
#1903=CARTESIAN_POINT('Origin',(38.9284341164284,36.2899930084588,9.51));
#1904=CARTESIAN_POINT('Origin',(36.0998949095651,33.461529345342,9.51));
#1905=CARTESIAN_POINT('Origin',(30.1550833479168,45.0633437786316,9.51));
#1906=CARTESIAN_POINT('Origin',(35.0199910090036,40.1984361164838,9.51));
#1907=CARTESIAN_POINT('Origin',(32.191624491475,37.370124612624,9.51));
#1908=CARTESIAN_POINT('Origin',(32.1915894619675,41.3700000005094,9.51));
#1909=CARTESIAN_POINT('Origin',(16.0957859733692,41.3700000002274,9.51));
#1910=CARTESIAN_POINT('Origin',(-5.90842692651397,39.9100004785741,9.51));
#1911=CARTESIAN_POINT('Origin',(-5.90842707348602,43.91,9.51));
#1912=CARTESIAN_POINT('Origin',(-2.95421357340669,43.91,9.51));
#1913=CARTESIAN_POINT('Origin',(-36.1,43.91,9.51));
#1914=CARTESIAN_POINT('Origin',(-36.10000149415,39.91000149415,9.51));
#1915=CARTESIAN_POINT('Origin',(-40.0999999999992,39.9099985058489,9.51));
#1916=CARTESIAN_POINT('Origin',(-40.09999984022,36.1824975616708,9.51));
#1917=CARTESIAN_POINT('Origin',(36.0998949095651,33.461529345342,8.51));
#1918=CARTESIAN_POINT('',(42.1000000003176,33.4615738992599,10.51));
#1919=CARTESIAN_POINT('Origin',(42.1000000001539,18.9999995743865,8.51));
#1920=CARTESIAN_POINT('',(42.1000000001539,18.9999995743865,8.51));
#1921=CARTESIAN_POINT('Origin',(24.2999994568527,30.8999993093312,8.51));
#1922=CARTESIAN_POINT('',(24.2999994568527,30.8999993093312,8.51));
#1923=CARTESIAN_POINT('',(24.2999994568527,30.8999993093312,10.51));
#1924=CARTESIAN_POINT('',(24.2999994568527,25.0499994400889,8.51));
#1925=CARTESIAN_POINT('Origin',(1.69999996200204,30.8999993093312,8.51));
#1926=CARTESIAN_POINT('',(24.2999994568527,30.8999993093312,8.51));
#1927=CARTESIAN_POINT('Origin',(1.58673074679427E-10,32.4549997447937,-7.49));
#1928=CARTESIAN_POINT('',(-20.0499995518444,18.99999957509,-7.49));
#1929=CARTESIAN_POINT('Origin',(39.0698658594625,36.4314039776471,8.51));
#1930=CARTESIAN_POINT('',(39.0698658594625,36.4314039776471,8.51));
#1931=CARTESIAN_POINT('',(39.0698658594625,36.4314039776471,8.51));
#1932=CARTESIAN_POINT('',(35.1614082391889,40.3398615987674,8.51));
#1933=CARTESIAN_POINT('',(30.2965004549658,45.2047693840444,8.51));
#1934=CARTESIAN_POINT('',(35.1614082391889,40.3398615987674,8.51));
#1935=CARTESIAN_POINT('Origin',(36.0998949095651,33.461529345342,8.51));
#1936=CARTESIAN_POINT('',(40.3000000003229,33.4615672162994,8.51));
#1937=CARTESIAN_POINT('',(40.3000000003229,33.4615672162994,8.51));
#1938=CARTESIAN_POINT('Origin',(36.0998949095651,33.461529345342,8.51));
#1939=CARTESIAN_POINT('Origin',(40.3000000001539,18.9999995744068,8.51));
#1940=CARTESIAN_POINT('',(40.3000000001539,18.9999995744068,8.51));
#1941=CARTESIAN_POINT('',(40.3000000001539,18.9999995744068,8.51));
#1942=CARTESIAN_POINT('',(40.3000000002301,25.7274996593722,8.51));
#1943=CARTESIAN_POINT('Origin',(-40.2999991808518,20.7999995667439,8.51));
#1944=CARTESIAN_POINT('',(-40.2999991808518,20.7999995667439,8.51));
#1945=CARTESIAN_POINT('',(-40.2999991808518,20.7999995667439,8.51));
#1946=CARTESIAN_POINT('',(-40.2999994451194,26.6274987419994,8.51));
#1947=CARTESIAN_POINT('Origin',(-40.2999999999986,39.9099970888544,8.51));
#1948=CARTESIAN_POINT('',(-40.2999999999986,39.9099970888544,8.51));
#1949=CARTESIAN_POINT('',(-40.2999999999986,39.9099970888544,8.51));
#1950=CARTESIAN_POINT('',(-40.29999984022,36.1824975530978,8.51));
#1951=CARTESIAN_POINT('Origin',(-36.10000149415,39.91000149415,8.51));
#1952=CARTESIAN_POINT('Origin',(-36.10000149415,39.91000149415,8.51));
#1953=CARTESIAN_POINT('Origin',(-12.,45.91,5.5));
#1954=CARTESIAN_POINT('',(-12.,45.91,7.5));
#1955=CARTESIAN_POINT('Origin',(-25.434497506712,45.91,5.5));
#1956=CARTESIAN_POINT('',(-25.434497506712,45.91,7.5));
#1957=CARTESIAN_POINT('Origin',(-10.,45.91,7.5));
#1958=CARTESIAN_POINT('Origin',(-5.90842692651397,39.9100004785741,8.51));
#1959=CARTESIAN_POINT('',(-2.93857899215279,42.8798488293739,8.51));
#1960=CARTESIAN_POINT('',(-2.93857899215279,42.8798488293739,8.51));
#1961=CARTESIAN_POINT('Origin',(-5.90842692651397,39.9100004785741,8.51));
#1962=CARTESIAN_POINT('Origin',(-1.62873016277999,41.5700000000013,8.51));
#1963=CARTESIAN_POINT('',(-1.62873016277999,41.5700000000013,8.51));
#1964=CARTESIAN_POINT('',(-1.62873016277999,41.5700000000013,8.51));
#1965=CARTESIAN_POINT('',(1.05720244175662,38.884067395465,8.51));
#1966=CARTESIAN_POINT('Origin',(32.1915805298193,41.5700000004327,8.51));
#1967=CARTESIAN_POINT('',(32.1915805298193,41.5700000004327,8.51));
#1968=CARTESIAN_POINT('',(32.1915805298193,41.5700000004327,8.51));
#1969=CARTESIAN_POINT('',(16.0957902649309,41.5700000002274,8.51));
#1970=CARTESIAN_POINT('Origin',(32.191624491475,37.370124612624,8.51));
#1971=CARTESIAN_POINT('Origin',(32.191624491475,37.370124612624,8.51));
#1972=CARTESIAN_POINT('Origin',(-40.0999991036951,18.9999995753169,8.51));
#1973=CARTESIAN_POINT('',(42.1000000001539,18.9999995743865,8.51));
#1974=CARTESIAN_POINT('Origin',(1.58673074679427E-10,32.4549997447937,8.51));
#1975=UNCERTAINTY_MEASURE_WITH_UNIT(LENGTH_MEASURE(0.01),#1979,
'DISTANCE_ACCURACY_VALUE',
'Maximum model space distance between geometric entities at asserted c
onnectivities');
#1976=UNCERTAINTY_MEASURE_WITH_UNIT(LENGTH_MEASURE(0.01),#1979,
'DISTANCE_ACCURACY_VALUE',
'Maximum model space distance between geometric entities at asserted c
onnectivities');
#1977=(
GEOMETRIC_REPRESENTATION_CONTEXT(3)
GLOBAL_UNCERTAINTY_ASSIGNED_CONTEXT((#1975))
GLOBAL_UNIT_ASSIGNED_CONTEXT((#1979,#1981,#1982))
REPRESENTATION_CONTEXT('','3D')
);
#1978=(
GEOMETRIC_REPRESENTATION_CONTEXT(3)
GLOBAL_UNCERTAINTY_ASSIGNED_CONTEXT((#1976))
GLOBAL_UNIT_ASSIGNED_CONTEXT((#1979,#1981,#1982))
REPRESENTATION_CONTEXT('','3D')
);
#1979=(
LENGTH_UNIT()
NAMED_UNIT(*)
SI_UNIT(.MILLI.,.METRE.)
);
#1980=(
LENGTH_UNIT()
NAMED_UNIT(*)
SI_UNIT($,.METRE.)
);
#1981=(
NAMED_UNIT(*)
PLANE_ANGLE_UNIT()
SI_UNIT($,.RADIAN.)
);
#1982=(
NAMED_UNIT(*)
SI_UNIT($,.STERADIAN.)
SOLID_ANGLE_UNIT()
);
#1983=SHAPE_DEFINITION_REPRESENTATION(#1984,#1985);
#1984=PRODUCT_DEFINITION_SHAPE('',$,#1987);
#1985=SHAPE_REPRESENTATION('',(#1159),#1977);
#1986=PRODUCT_DEFINITION_CONTEXT('part definition',#1991,'design');
#1987=PRODUCT_DEFINITION('2026-09-09-16-52-30-387','Rx-case 1.2',#1988,
#1986);
#1988=PRODUCT_DEFINITION_FORMATION('',$,#1993);
#1989=PRODUCT_RELATED_PRODUCT_CATEGORY('Rx-case 1.2','Rx-case 1.2',(#1993));
#1990=APPLICATION_PROTOCOL_DEFINITION('international standard',
'automotive_design',2009,#1991);
#1991=APPLICATION_CONTEXT(
'Core Data for Automotive Mechanical Design Process');
#1992=PRODUCT_CONTEXT('part definition',#1991,'mechanical');
#1993=PRODUCT('2026-09-09-16-52-30-387','Rx-case 1.2',$,(#1992));
#1994=PRESENTATION_STYLE_ASSIGNMENT((#1998));
#1995=PRESENTATION_STYLE_ASSIGNMENT((#1999));
#1996=PRESENTATION_STYLE_ASSIGNMENT((#2000));
#1997=PRESENTATION_STYLE_ASSIGNMENT((#2001));
#1998=SURFACE_STYLE_USAGE(.BOTH.,#2002);
#1999=SURFACE_STYLE_USAGE(.BOTH.,#2003);
#2000=SURFACE_STYLE_USAGE(.BOTH.,#2004);
#2001=SURFACE_STYLE_USAGE(.BOTH.,#2005);
#2002=SURFACE_SIDE_STYLE('',(#2006));
#2003=SURFACE_SIDE_STYLE('',(#2007));
#2004=SURFACE_SIDE_STYLE('',(#2008));
#2005=SURFACE_SIDE_STYLE('',(#2009));
#2006=SURFACE_STYLE_FILL_AREA(#2010);
#2007=SURFACE_STYLE_FILL_AREA(#2011);
#2008=SURFACE_STYLE_FILL_AREA(#2012);
#2009=SURFACE_STYLE_FILL_AREA(#2013);
#2010=FILL_AREA_STYLE('Steel - Satin',(#2014));
#2011=FILL_AREA_STYLE('Opaque(35,103,185)',(#2015));
#2012=FILL_AREA_STYLE('Opaque(243,203,124)',(#2016));
#2013=FILL_AREA_STYLE('Opaque(160,160,160)',(#2017));
#2014=FILL_AREA_STYLE_COLOUR('Steel - Satin',#2018);
#2015=FILL_AREA_STYLE_COLOUR('Opaque(35,103,185)',#2019);
#2016=FILL_AREA_STYLE_COLOUR('Opaque(243,203,124)',#2020);
#2017=FILL_AREA_STYLE_COLOUR('Opaque(160,160,160)',#2021);
#2018=COLOUR_RGB('Steel - Satin',0.627450980392157,0.627450980392157,0.627450980392157);
#2019=COLOUR_RGB('Opaque(35,103,185)',0.137254901960784,0.403921568627451,
0.725490196078431);
#2020=COLOUR_RGB('Opaque(243,203,124)',0.952941176470588,0.796078431372549,
0.486274509803922);
#2021=COLOUR_RGB('Opaque(160,160,160)',0.627450980392157,0.627450980392157,
0.627450980392157);
ENDSEC;
END-ISO-10303-21;
